/* XPM */
static char *_58fd57a419f4b8ba12edd42d45e9827kBK22fev48LjplBf[] = {
/* columns rows colors chars-per-pixel */
"50 50 78 1 ",
"  c #2E631B",
". c #2F641C",
"X c #2F641E",
"o c #30651D",
"O c #31661E",
"+ c #32671F",
"@ c #316620",
"# c #336820",
"$ c #346921",
"% c #356A22",
"& c #366B23",
"* c #346C23",
"= c #356A24",
"- c #366B25",
"; c #376C24",
": c #366E25",
"> c #376C26",
", c #386E23",
"< c #386C24",
"1 c #386D25",
"2 c #386D27",
"3 c #396E26",
"4 c #3A6E26",
"5 c #3A6F27",
"6 c #3B6F27",
"7 c #396E28",
"8 c #377127",
"9 c #3A7025",
"0 c #3B7126",
"q c #3C7226",
"w c #3C7227",
"e c #3B7028",
"r c #387228",
"t c #3A7229",
"y c #3B702A",
"u c #3B732A",
"i c #3C7028",
"p c #3C7129",
"a c #3D7129",
"s c #3C712B",
"d c #3D722A",
"f c #3E722A",
"g c #3E732B",
"h c #3C742B",
"j c #3B732C",
"k c #3D722C",
"l c #3E732D",
"z c #3D752C",
"x c #3F742C",
"c c #3D772D",
"v c #3F742E",
"b c #40762A",
"n c #40762B",
"m c #40742C",
"M c #40752D",
"N c #40752F",
"B c #41762E",
"V c #42772F",
"C c #40782F",
"Z c #43792E",
"A c #417630",
"S c #427731",
"D c #437830",
"F c #427A31",
"G c #437832",
"H c #447931",
"J c #447933",
"K c #457A32",
"L c #467B33",
"P c #437834",
"I c #457A34",
"U c #477C34",
"Y c #487D35",
"T c #497D35",
"R c #497E36",
"E c #4A7F37",
"W c #4B7F37",
"Q c #4B8038",
/* pixels */
"HHBddxd;QHB3dBd&DHHxdde3B33dB3dDxe;&eUDeHdedBde3dd",
"B33dBdedHBddxBd33dBdBHHHB3;Bx3dHexxddBBeBe3dBd3;RQ",
"x++xB&&B3dxdddx33dxxxDBBd33dB3dB+3Dx3;;;x3;dxde36d",
"x33dd3;d&dBxddd3;ddddBd3xeexdd3B+exx3;33d33dxdee<3",
"3BB3eBxe&dBxde33+&3ddBBdBdxdx33ddxxBBBDDxeeBBddx6m",
"&BH;3DHd3xDBee3;3dxxBBBdBxxBde33Dd3dBBDUBdxBBddxd6",
"&eB33dBd3xBxddd;xDBddBdeddxddde3Be;ededBxdxBBeedVm",
"333d3#&eddxdddd3&3e3eBHD3eddxxBdBeexdeexxxxxd33d3+",
"3dxdddxxBxdddddxdddxddd3B33dxdBBdBB;&e3 3ede&&exBF",
"BBx3dBB3&3dxdBBdBxxdddddBxeddddBeBd3eBd+edBxdedx&;",
"HBd3dHx33edBxd3&dddedddBDded3&&33deexHB&;eexdee3cc",
"DB33dBBd3eBBBd3&;3eeddedDxddd;3d3dxdxDx3;;;3e3;&ux",
"3dd33dBd3dddxBBx;3dBBxd3HDBDxdxH;xBBeedeBddeddxh;r",
"&3d33dxBHBBdd3ededBDDBddBdBBdexHexDxe3edBBxddlxDuc",
"&3dedBB3HDBd3333dBxxdxddeddd3&eBDxddxxdxeddde3dx88",
"3dedBHd&&&&3dBDHxd3333edBBDDxexHRd;3DUDd&dBBe39duc",
"&B#dd#D3Bd33eBxxd&&dBe&;dBHBdBBdHHBd3&&&&dd&3BUB;j",
"&B&BB3B3BBdedd33e33xBd3edBBddddd&33ddBDBd33dddBHvP",
";d3BBex333ddBBddeBBxddxdeBde3dBd3ddBBBBBB&&BB;eHj7",
"exdBBdBd333ddBBB3DDd;BBBddxddxDUdxBBBdd3d3&ed&3dAl",
"BddddxxBDDxd333deBD33dBdBxddddxH33dxxBxdeBx33dd;Il",
"BeB33BdHBBB333ddeBxe3eBdBxxd3;;ddddBdBdd3BB33BB3Al",
"B;B33D3B33ededBHBd3dddddxddBd33dBBBdxdd3ddddddd3RH",
"d&H3eD3BedBxdeedBe3xHd3B333BBddDxBBBdBBBd&&dd&#dd7",
"xe33xddexHdxdeUH3BHdedddxBe3ddeB&&3dd#3HdB33BHd+dB",
"dddxdd&&3d&dd&xd;3ed33ddexe3BxeBdddB3&33B33BB33mBd",
"&;edBBd3&xdHB3Bed;eBB3eB3BddDDdH3exdxBBeedxBd&dH99",
"3&3dBHBddHdHHdHdHddUH3;B3BBdHBdB#dd3dHHd+HU&+BHd,,",
"QB3dBDd&3Bdxx;BdH3eDD;&d3BBdB33ddBB33Bd&+HH#+HR399",
"QB33BHx;dD3de&BdBd3BBd3B3dd33&+3ddddddddBd3dmdddbB",
"d333xDBBdHdBx3BdBddBBBde;Bd33&&d3eddddBRB3;BVd3dbb",
"3dBxe33ddHeBx;Bdddd;3d3+eDBdxddHHxBHd&dR3BBddhd3ww",
"ddddDRH3ddHe3B3e3ddxHRB3HRBdeBBe.3BBdd& dBB33ddeDZ",
"#&&+&dd3d3H33BexBxd3dBd;BDx3edd3exB3edd33ddedde;xx",
"dHHDBxBBddHedHxHBBd33d3&dxd3ddd3BBe3dBx3;ededd3&ee",
";dBHDd3&BdHd3HdU3ddddB3+xddxxBdde33dBBe&3dBddxd3HH",
"++&3BxddB3Bd3d&B;ddxBBe&ddddBBdde3&eBd3&BBBddBDxdx",
"RBeddBBHBdHBxB&Bexde3BBBxe3dddddD333dddBxBBddBDBe7",
"Hxdd3+&3D3HHDB3D3dx3ddBBBd3dddexBd3ddddHedxddBBdUU",
"+&BRHd3B3+dBdd&d&dBBBBd3RxddBxdH3;dHHd3d&ededdd;xx",
"3xHHDdee&BxdHxeBDd&&dBHB&333333&;dxB3;3Bd3&3e3ddex",
"DDDxdedxeBd3BxeBBxdBHHBBeddedBd3dBBd3;eddBx3eDHd;9",
"xxdd33dBBB3;BBdB3edBBBe3BBdedHx3exBBd3dxeHH33RHe;;",
"&&edxdeeBB;;BBdd&3dxd3&&DB3&eBd&3edddBBB3dd3eBB3de",
";3ddxde3dxe3HHeedxBDxd3dBd3#3B3+deeddBBBd&3dBe3dDh",
"HDd33ddddBdeHH3eBBBBBxBdxd3;3Bd&Bd3dBddeB&&DD33Dxe",
"Hxd3eddBdBddBd3dxdddBBd3dxxddBx7HdeedBe&De3dBedBex",
";&&3dBBdxHB3xd3DddexHHd33dBdlBxdBe;3xBd3xd333BBdex",
"3xHDd3ddBd3BBd3BA3lX7>ll>A;7l>vAdde B&dd33dH&d#Uxu",
"3dHBdeedB33xd33Bl>7@x7PA7A>7l>vABxx&HdBBe3eH&x#Hxu"
};
