/* XPM */
static char *result[] = {
/* columns rows colors chars-per-pixel */
"64 64 15 1 ",
"  c #262121",
". c #2F2929",
"X c #29363E",
"o c #32434C",
"O c #394E57",
"+ c #415A64",
"@ c #496670",
"# c #4F717B",
"$ c #547882",
"% c #597F8A",
"& c #5F8893",
"* c #67929E",
"= c #71A0AD",
"- c #80B4C3",
"; c #9AF4FD",
/* pixels */
"$$$$$$$$$%%%$$$=OO$$$$$$$$$$$$$######$$$$$$$$%&%O@#$#####$$$$$$$",
"$$$$$$$$%%%%$$$=OO#$$$$$%$$$$$$######$#$#$$$$$&%O@#$##@###$##$$$",
"$$$$$$$$$$%%$$$=o+$$$$%$$$%$$$$#####$$$#$$#$$%%%O@#$###@#####$$$",
"$$$#$$$%$%$%$$$*X+$$$$$$%$$$%$$$###$$#$$#$$$$$%$o@#$####@#@##$$$",
"$$###$$$$$%$$$$*o+$$$$%$$$%$$$$$$$$$$$$$#$#$$$%$o@#$###@#@####$$",
"$######$$$$$$#$*o+$$$$$$%$$$$$%$$$$$$$$$$$$#$$%$o@#$######@####$",
"###@####$$$$$$$*O+$$$$$%$$%$%$$$%$%$%$$$$#$$##$%o@#$$###@#######",
"##@#@##$#$#$#$#*O+$#$%$$$$$$$$$$$$$$$$$$$#$#$$$%o@#$$###########",
"########$#$$$##*O+$$$$$$%$$%$%$$$$$$$$$#$$#$#$$%o@#$$###########",
"#######$#$$#$$#&o+$#$$$$$%$$$$$$$$#$#$#$$#$$$#$%o@#$$$##########",
"#$#####$$#$#$#$%o+$$#$$$$$$%$$%$$$$#$#$#$#$#$$#%o+#$$###########",
"$$$$$$$#$$$$$$$%oO$$$$$$$$$$$$$$$$#$#$$$#$$#$#$$o+#$$$$$$$$$$$$$",
"#############$#@XO#$$$$$$$$$$%$$$$$$$$$$$$$$$$$#o@##############",
"@@@+@+@++@+++++o.Xo+@@@@@@@@++++@@@+++@+@@@@@@@#XO@@@@@@@@@@+@@@",
"XXoooOOOOooooXXXXXXXXXXXXXXXXXXXXXXX..XXXXXXXXXXXXoXXoXXXXXXXXXX",
".+%%%&********==*===****======-=Xo+@%&****&**=***=****&&**===*%X",
"X#$$$$%%%%%%%%%%%%&&*******&*=--+@$&&*&&&&&&&&&&&&**&**==****=;=",
"o@$$$$%%%%%%%%%%%%%%$$$$$$%%%%&-++#$$#$$$$$$$$$$$$$%%%%%%%%%%%=-",
"o@$$$$%%%%%%%%$%%%%%%%%%%%%%%%*-++#$$$$$$$$%%%%%%%%%%%%%%%%%%%&=",
"o@$#$$$$$$$%%$$$$%$%%%%%%%%%%%*-++#$$$$$$$$%%%%%%%%%%%%%%%%%%&*=",
"o@$$#$$$$$$$$$$$$$$$%$%%%%%%%%*-++#$$$$$$$$$$%%%%%%%%%$%%%%%&&=*",
"o@$#$$#$#$$$$#$#$#$$$$$%%%%%%%&-++#$$%%$$$$$$$$$$$$%%%$%%%%%&&=*",
"o@$$#$#$$$#$$$$$$$#$#$$%%%%%%%%=++#$$$%$$$$$$$$$$$%$%%%%%%%%&&=&",
"O@$#$#$$$$$$$$$$$%%$$$$$%%%%%%%=@+#$$$$%$%$$%$$$$$$$$%$$%%%%%&=$",
"+@$$#$$$$%$%$%%$$%&$$#$%%%%%%%$=@+#$$$$$%%$$$$$$$$$$$$$$$%%%%&=+",
"+@$$$#$$$%$%$%$%$%%%$$$$%%%%%%%=@O#$$$$$$%%$$$$$$$$#####$$%%%&=+",
"O#$$##$$$%$%$%$$%$$%%$$$%%%%%%$*+O@$$$$$$%%%%$%$$$$######$$%%%=+",
"O#$$###$$$$$$%$%$%$%%%%%%%%%%%%*+O@$$$$$$$%%%%$$$$########$%%%=+",
"o#$####$$$$$$$$%$$%$$%%&%%%%$%$*+O@#$$$$$$$%%%%$%$#######$$%%%*@",
"o#$#####$#$#$$$$$%$%$%%%%%%%%%%*+O@###$$$$$%%%%%$$########$$%%*@",
"O@$######$#$$$$$$$$%$%$%%%%%%%$*@+@$##$$$$$$$$%%$$########$$%%*+",
"O@$####$##$$#$#$$$$$%$%$%%%%%%%*#+@$###$$$$$$$$%$$########$$%%*+",
"+@$######$#$#$#$#$$%$%$%$%%%%%$*$O@####$$$$$$$%$$#$########$%%*O",
"+@$####$####$$$#$$$$%$%$%%%%%%%*%O@####$$$$$$$$$%$$########$%&*O",
"+@$$#####$#$#$#$#$$$$%$$%$%%%%$&&O@$####$$$$$$$%%%$$######$$%%*O",
"O@$$########$#$#$$#$$$%%$%%%%%%&*O@#$######$$$$$%%%$$#####$$%%*+",
"O@$$#####$####$##$$$$%$%$%%%%%$**O@#$##@###$$$$$$$$$$$$###$%%%*#",
"O@#$##@###$#$###$##$$$%$%$$%%%%**O@#$###@##$$$$$$$$$$$$$$$%%%&&$",
"O@#$###@######$##$$$$$%$%$%%$%%*=O@#$##@###$$$$$$$$$$$$$$%%%%%&%",
"o@#$##@########$##$#$$$%$%$$%%%*=o@#$###@##$$$$$$$$$$$$$$%%%%%&%",
"o@#$##@#@#####$##$#$$$$$$$%%%%$**o@#$####@##$$$$$$$$$$$$%%%&%&&%",
"o@#$#@#@####$#####$$#$$$$$%$%%%*&o@#$###@#@##$$$$$$$$$$$%%%%%%%%",
"O@#$##@#######$#$#$#$#$#$$$%%%%*&O@#$###@##@######$$$$%%%%&%&%%%",
"o@#$######$##$###$$#$$#$$$$%%%%&%+@#$$###@#######$$%%%%%%%%%%%$%",
"o@@$$$$#$#$$$$#$$$$$$$$$$$$$$$$%#+@@####@########$$$$%%%%%%%%$$$",
"X@@#######################@@@@@#OX++@@++@@@@@@@@@@@@@@@@#@######",
" XoOOOOOOOOOOOO++OOooooOOOOooOOOooooOooooooooooOOOoOOOOOOOOOOOoX",
"#####$$######@+..oO++@##$$%%%&***====*****==**#XXO+@@@@@@@@@@@++",
"****========---@X@%%&&&&&&&&&&&**&&&&*&*****=--@O*==****&&**&&**",
"%%%%%%%%%%%%%%-*X#$$%%%%%&%%%%%&&%&%&%&%%&&&&&-#+###$$$$$$$$$%%%",
"%%%%%%%%%%%%%$=*X@$$$$%%%%%%%%%%%&%&%%%%&%%&&&=++@###$$$%$%$%$$%",
"$%%%%&%&%&%&%%=&X@$$###$$$#$$$%%%%%%%%%%%%&%%&=++@#####$$$$$$$%$",
"$$$%%%%%%%%%%%=&X@$#####$$$#$#$$$$$$%%%%%&%&%%=#O#######$$$$$$$$",
"$$$$$$$%%&%&%$=&X@$########$$$#$#$$$%%%%%%&%&%=#O###@####$$$%$$%",
"$$$$$$$$%%%%%%=*X@$#######$#$#$$$#$$%%%%%%%&%%*@O########$$$$$$$",
"$$$$%$$$%%%%%%**X+$$#########$#$#$$$$%%%%%%%&%*@O@####@###$$%$$$",
"$$%$$$%$%%%%%%**X+$$$###########$#$#$$$%%%%%&&*@O@##@#####$$$$$$",
"$$$$$$$%$$$%%%**X+$$$$#########$#$#$$$$$%%%%%&&++@########$$$$$$",
"$$$$$$%$$$$%%%**X+$$%$$##########$$#$#$$$%%%&&&#+@#####@##$$$$$$",
"$$$$$$$%%$%%%$&*X+$$$$$############$$$$$$%%%&&&%O@#######$$$$$$$",
"$$$$$$$$$%%%%$&*o+$$$%$$$$$#######$#$#$#$%$%%&&$O##$##@##$$$$$$$",
"$$$$$$$$%$%%$$%*o+$$$$%$$$$$$#######$$$$$$%$$%&$O#$######$$$$$$$",
"$$$$$$$$$%%%$$$*o+$$$$$$%$$$$$#######$#$$$$$$%&$O@$###@##$$$$$$$",
"$$$$$$$$$%%%$$$*o+$$$$$$$$$$$$$######$$$$$$$$%&%O@#$#####$$$$$$$"
};
