/* XPM */
static char *_8d69ab34d794c918e1d03222abfb265wftHSAiCmszizlT4[] = {
/* columns rows colors chars-per-pixel */
"50 50 136 2 ",
"   c None",
".  c #F79013",
"X  c #F79015",
"o  c #F79115",
"O  c #F79116",
"+  c #F79117",
"@  c #F79217",
"#  c #F79218",
"$  c #F79318",
"%  c #F79219",
"&  c #F79319",
"*  c #F6931A",
"=  c #F7931A",
"-  c #F7931B",
";  c #F6941A",
":  c #F7941B",
">  c #F7941C",
",  c #F7951D",
"<  c #F7951E",
"1  c #F7951F",
"2  c #F7961F",
"3  c #F89319",
"4  c #F8921A",
"5  c #F8931A",
"6  c #F9931A",
"7  c #F99419",
"8  c #F89519",
"9  c #F99519",
"0  c #FA9419",
"q  c #FA9519",
"w  c #FB9519",
"e  c #FB9619",
"r  c #F8941A",
"t  c #F9941A",
"y  c #F8951A",
"u  c #F9951A",
"i  c #FA941A",
"p  c #FA951A",
"a  c #FB951A",
"s  c #F9961A",
"d  c #FA961A",
"f  c #FB961A",
"g  c #FC9519",
"h  c #FC961A",
"j  c #FE961B",
"k  c #FA981B",
"l  c #FE9819",
"z  c #FD991A",
"x  c #FE981B",
"c  c #F79621",
"v  c #F79721",
"b  c #F79722",
"n  c #F89722",
"m  c #F79825",
"M  c #F79926",
"N  c #F89824",
"B  c #F89926",
"V  c #F89A28",
"C  c #F89B2A",
"Z  c #F89C2C",
"A  c #F89C2D",
"S  c #F8A23A",
"D  c #F8A33B",
"F  c #F8A53F",
"G  c #F8A540",
"H  c #F9A847",
"J  c #F9AA4B",
"K  c #F9AB4C",
"L  c #F9AD51",
"P  c #F9AF56",
"I  c #FAB158",
"U  c #F9B25C",
"Y  c #FAB562",
"T  c #FAB563",
"R  c #FAB765",
"E  c #FAB868",
"W  c #FAB96A",
"Q  c #FABB6E",
"!  c #FABC70",
"~  c #FABD73",
"^  c #FABE74",
"/  c #FABE75",
"(  c #FAC079",
")  c #FBC079",
"_  c #FAC07A",
"`  c #FBC17C",
"'  c #FBC27D",
"]  c #FBC37E",
"[  c #FBC789",
"{  c #FBC88A",
"}  c #FBCA8D",
"|  c #FBCA8F",
" . c #FCCF9A",
".. c #FBD09C",
"X. c #FCD09C",
"o. c #FCD19D",
"O. c #FCD29F",
"+. c #FCD4A3",
"@. c #FCD4A4",
"#. c #FDDEB9",
"$. c #FDE2C2",
"%. c #FDE3C3",
"&. c #FDE3C4",
"*. c #FDE5C7",
"=. c #FDE7CD",
"-. c #FDE8CE",
";. c #FDE9D0",
":. c #FEECD7",
">. c #FEEDD9",
",. c #FEEEDA",
"<. c #FEEFDC",
"1. c #FEEFDD",
"2. c #FEEFDE",
"3. c #FEF0DE",
"4. c #FEF0DF",
"5. c #FEF0E0",
"6. c #FEF2E3",
"7. c #FEF3E4",
"8. c #FEF4E7",
"9. c #FEF4E8",
"0. c #FEF7EF",
"q. c #FFF8F0",
"w. c #FFF8F1",
"e. c #FEF9F2",
"r. c #FFF9F2",
"t. c #FFF9F3",
"y. c #FFF9F4",
"u. c #FFFAF5",
"i. c #FFFCF7",
"p. c #FFFCF8",
"a. c #FFFDFB",
"s. c #FFFEFC",
"d. c #FFFEFD",
"f. c #FFFEFE",
"g. c #FFFFFE",
"h. c white",
/* pixels */
"                                        z 5 5 = = = 5 p 5 z                                         ",
"                                5 p 5 ; = = 5 5 = = = = = = = 5 p 5                                 ",
"                            p = = = = = = = = = = = = = = = = = = = = 5                             ",
"                        p p = = = = = = = = = = = = = = = = = = = = = = = p                         ",
"                      p = = = = = = = = = = = = = = = = = = = = = = = = = = p                       ",
"                  p = = = = = = = = = = = = = = = = = = = = = = = = = = = = = = p                   ",
"                p 5 = = = = = = = = = = = = = = = = = = = = = = = = = = = = = = 5 p                 ",
"              z = = = = = = = = = = = = = = = = = = = = = = = = = = = = = = = = = = z               ",
"            h = = = = = = = = = = = = = = = = = = = = = = = = = = = = = = = = = = = = p             ",
"          p ; 5 = = = = = = = = = = = = = = = = ..F @ = = = = = = = = = = = = = = = = = p           ",
"          = = = = = = = = = = = = = = = = = = = d.d.d.= = G . > = = = = = = = = = = = = =           ",
"        5 = = = = = = = = = = = = = = = = = = @ d.d.2.= @ d.d.a.; = = = = = = = = = = = = p         ",
"      p = = = = = = = = = = = = = > K = > = = U d.d.^ = n d.d.&.= = = = = = = = = = = = = = p       ",
"      = = = = = = = = = = = = = = Q d.d.d.#.J -.d.d.> = } d.d.K = = = = = = = = = = = = = = 5       ",
"    p = = = = = = = = = = = = = = 2.d.d.d.d.d.d.d.d.] M a.d.d.; = = = = = = = = = = = = = = = p     ",
"    = = = = = = = = = = = = = = = ! 5.d.d.d.d.d.d.d.d.d.d.d.d.5 = = = = = = = = = = = = = = = =     ",
"  p = = = = = = = = = = = = = = = = = = d.d.d.d.d.d.d.d.d.d.d.d.&.= = = = = = = = = = = = = = = ;   ",
"  k = = = = = = = = = = = = = = = = = = 5.d.d.d.d.*.d.d.d.d.d.d.d.d.W = = = = = = = = = = = = = p   ",
"  = = = = = = = = = = = = = = = = = = = d.d.d.d.d.= = = [ d.d.d.d.d.d.E = = = = = = = = = = = = ;   ",
"  = = = = = = = = = = = = = = = = = = v d.d.d.d.d.= = = @ ; 9.d.d.d.d.d.= = = = = = = = = = = = =   ",
"z = = = = = = = = = = = = = = = = = = ( d.d.d.d. .= = = @ = @ d.d.d.d.d.V = = = = = = = = = = = = h ",
"5 5 = = = = = = = = = = = = = = = = = 7.d.d.d.d.V = = = = = = d.d.d.d.d.A = = = = = = = = = = = = p ",
"p = = = = = = = = = = = = = = = = = = d.d.d.d.d.@ = = = = > L d.d.d.d.d.@ = = = = = = = = = = = = 5 ",
"5 = = = = = = = = = = = = = = = = = = d.d.d.d.d.d.$.T D D @.d.d.d.d.d.t.> = = = = = = = = = = = = p ",
"= = = = = = = = = = = = = = = = = 5 ^ d.d.d.d.d.d.d.d.d.d.d.d.d.d.d.d.> > = = = = = = = = = = = = = ",
"= = = = = = = = = = = = = = = = = ; 9.d.d.d.d.t.d.d.d.d.d.d.d.d.d.>.> = = = = = = = = = = = = = = = ",
"5 = = = = = = = = = = = = = = = = > d.d.d.d.d.= = M +.d.d.d.d.d.d.5.= = = = = = = = = = = = = = = 5 ",
"5 = = = = = = = = = = = = = = = = = d.d.d.d.u.> = = = = Q d.d.d.d.d.i.> = = = = = = = = = = = = = p ",
"p = = = = = = = = = = = = = = ; = ! d.d.d.d.o.= = = = = = D d.d.d.d.d.W = = = = = = = = = = = = = p ",
"h = = = = = = = = = = = = = > > > 4.d.d.d.d.A = = = = = = > d.d.d.d.d.>.= = = = = = = = = = = = = h ",
"  5 = = = = = = = = = = = V d.d.u.d.d.d.d.d.= = = = = = = > d.d.d.d.d.2.= = = = = = = = = = = = =   ",
"  = = = = = = = = = = = = >.d.d.d.d.d.d.d.d.= = = = = = = R d.d.d.d.d.o.= = = = = = = = = = = = =   ",
"  p ; 5 = = = = = = = = = d.d.d.d.d.d.d.d.d.d.d.2.@.( | 9.d.d.d.d.d.d.M = = = = = = = = = = = = k   ",
"  ; = = = = = = = = = = = @ M { t.d.d.d.d.d.d.d.d.d.d.d.d.d.d.d.d.d.u.> = = = = = = = = = = = = p   ",
"    = = = = = = = = = = = = = = = = d.d.d.d.d.d.d.d.d.d.d.d.d.d.d.d.v = = = = = = = = = = = = =     ",
"    p = = = = = = = = = = = = = = @ d.d.7.= F d.d.d.d.d.d.d.d.d.u.> = = = = = = = = = = = = = p     ",
"      p = = = = = = = = = = = = = I d.d.] = B d.d.-.v D E ^ J > > = = = = = = = = = = = = = =       ",
"      p = = = = = = = = = = = = = =.d.d.v = [ d.d.P = = = = = = = = = = = = = = = = = = = = p       ",
"        p = = = = = = = = = = = = 0.d.d.= = t.d.d.5 = = = = = = = = = = = = = = = = = = = p         ",
"          = = = = = = = = = = = = = = V = = d.d.d.; = = = = = = = = = = = = = = = = = = =           ",
"          h = = = = = = = = = = = = = = = = @ N ( = = = = = = = = = = = = = = = = = = = p           ",
"            p = = = = = = = = = = = = = = = = = = = = = = = = = = = = = = = = = = = 5 h             ",
"              z = = = = = = = = = = = = = = = = = = = = = = = = = = = = = = = = = = p               ",
"                p 5 = = = = = = = = = = = = = = = = = = = = = = = = = = = = = = = p                 ",
"                  p = = = = = = = = = = = = = = = = = = = = = = = = = = = = = = h                   ",
"                      p = = = = = = = = = = = = = = = = = = = = = = = = = p p                       ",
"                        5 = = = = = = = = = = = = = = = = = = = = = = = = p                         ",
"                            p = = = = = = = = = = = = = = = = = = = = p                             ",
"                                = p ; = = 5 = = = = = = = = = = p =                                 ",
"                                        z 5 5 5 = = = p 5 h                                         "
};
