/* XPM */
static char *_369e573663445bcbfbb9e68207317e5od2vIy5EXaznuGt2[] = {
/* columns rows colors chars-per-pixel */
"48 48 74 1 ",
"  c None",
". c #827717",
"X c #837917",
"o c #857C18",
"O c #898119",
"+ c #89801A",
"@ c #89821B",
"# c #8A831B",
"$ c #8B851B",
"% c #8E851B",
"& c #8D851C",
"* c #918A1D",
"= c #918B1E",
"- c #979320",
"; c #989320",
": c #9B9921",
"> c #9D9C23",
", c #9E9C23",
"< c #9E9D23",
"1 c #9D9C24",
"2 c #9E9D24",
"3 c #A1A025",
"4 c #A2A225",
"5 c #A1A126",
"6 c #A5A627",
"7 c #AFB32B",
"8 c #B0B42B",
"9 c #B4B92C",
"0 c #B4BA2D",
"q c #CEB938",
"w c #CFB93A",
"e c #D6BD3D",
"r c #D7BD3D",
"t c #BAC230",
"y c #BBC230",
"u c #BAC331",
"i c #BBC331",
"p c #C0CA33",
"a c #D5BF40",
"s c #D5BF41",
"d c #CCCA5A",
"f c #FFD44E",
"g c #FFD54E",
"h c #FFD44F",
"j c #FFD54F",
"k c #FFD550",
"l c #FFD651",
"z c #FFD653",
"x c #FFD655",
"c c #FFD755",
"v c #FFD759",
"b c #FFD85A",
"n c #FFD85B",
"m c #FFD960",
"M c #FFDB6A",
"N c #FFDC6D",
"B c #FFDE77",
"V c #FFDF7D",
"C c #FFE07F",
"Z c #FFE181",
"A c #FFE183",
"S c #FFE590",
"D c #FFE596",
"F c #FFE698",
"G c #FFE89F",
"H c #FFE7A1",
"J c #FFE8A3",
"K c #FFE9A6",
"L c #FFEBAB",
"P c #FFEAAC",
"I c #FFEBAD",
"U c #FFEBB1",
"Y c #FFECB0",
"T c #FFECB3",
/* pixels */
"                                                ",
"                                                ",
"                                                ",
"                                                ",
"                                                ",
"                               gkggkg           ",
"                             ggkkgkggkk         ",
"                           gkgbCDLIGZmgg        ",
"                          gkvSTTHBvkgxxgg       ",
"                        ggkVYTHNgkgggkgkgk      ",
"                      2qkxDTYAkkkgkgkgkgkg      ",
"                     <22aHTIMgkkgkgkgkgkgkg     ",
"                    <223ydKmkkgkkgkgkgkgkgk     ",
"                   <223iiyakkgkggkgkgkgkgkg     ",
"                  <2<3ipi62egkgkkgkgkgkgkgg     ",
"                 <223ipi4222egkggkgkgkgkgkg     ",
"                <223ipi422222egkkgkgkgkgkgg     ",
"               2223ypi4<222222eggkgkgkgkgk      ",
"              2223ypi4222222222ekggkkgkggk      ",
"             2223ypi422222222222egkggkgkk       ",
"            2223ypi42222222222222ekkgkgkg       ",
"           <223ypi4222222222222222egkgkg        ",
"          <223ypi422222222222222222egkk         ",
"         :223ypi32222222222222222222egg         ",
"         &-3ypi5222222222222222222222q          ",
"         @X7iy522222222222222222222222          ",
"      ;$@..o0522222222222222222222222           ",
"     <2=....X-2222222222222222222222            ",
"    <2236XX..X-22222222222222222222             ",
"     <3ii6XX..X-222222222222222222              ",
"      0py5=....X-2222222222222222               ",
"       0322=..XXX-22222222222222                ",
"        2222=....X-222222222222                 ",
"         <222=....X-2222222222                  ",
"          <222=....X-22222222                   ",
"           <222=....X-222222                    ",
"            ,222=....X-2222                     ",
"             <222=....X-22                      ",
"              1222=...O&:                       ",
"               1222=XO                          ",
"                2222=%                          ",
"                 222<-                          ",
"                  ,22                           ",
"                   <                            ",
"                                                ",
"                                                ",
"                                                ",
"                                                "
};
