/* XPM */
static char *_d21fa2b54a34a3aff35efacd5de1323a6URquJE46qlT8ja[] = {
/* columns rows colors chars-per-pixel */
"64 64 91 1 ",
"  c None",
". c #827717",
"X c #847A18",
"o c #867D18",
"O c #877D18",
"+ c #877D19",
"@ c #867E19",
"# c #887E1A",
"$ c #897F1A",
"% c #8B841B",
"& c #8B851B",
"* c #8D851B",
"= c #8D851C",
"- c #8D861C",
"; c #8E861D",
": c #908B1D",
"> c #918A1E",
", c #928B1E",
"< c #969521",
"1 c #979521",
"2 c #989522",
"3 c #999623",
"4 c #9A9822",
"5 c #9D9C24",
"6 c #9E9D24",
"7 c #9F9E24",
"8 c #9F9E25",
"9 c #A3A527",
"0 c #A4A426",
"q c #A3A528",
"w c #A7A928",
"e c #AAAB29",
"r c #B2B72D",
"t c #B3BA2D",
"y c #B6BD2F",
"u c #B7BD2F",
"i c #BAAD31",
"p c #BAAE31",
"a c #BCAE31",
"s c #B8BF30",
"d c #B8C130",
"f c #BDC631",
"g c #BDC732",
"h c #BEC43A",
"j c #BDC13C",
"k c #C0CA33",
"l c #FBD24C",
"z c #F9D14E",
"x c #FCD34E",
"c c #FDD44E",
"v c #FFD44E",
"b c #FFD54E",
"n c #FFD44F",
"m c #FFD54F",
"M c #FFD550",
"N c #FFD651",
"B c #FFD552",
"V c #FFD654",
"C c #FFD759",
"Z c #FCD75E",
"A c #FFD85E",
"S c #FFD960",
"D c #FFD962",
"F c #FFDA65",
"G c #FFDB69",
"H c #FFDB6A",
"J c #FFDC72",
"K c #FFDE76",
"L c #FFDE78",
"P c #FFDF7B",
"I c #FFE07E",
"U c #FFE07F",
"Y c #FFE081",
"T c #FFE287",
"R c #FBE38F",
"E c #FFE38C",
"W c #FFE38D",
"Q c #FFE48E",
"! c #FFE490",
"~ c #FFE491",
"^ c #FFE492",
"/ c #FFE89F",
"( c #FFE8A0",
") c #FFE9A6",
"_ c #FAEAAB",
"` c #FFEAA8",
"' c #FFEAAB",
"] c #FFEAAC",
"[ c #FFECAF",
"{ c #FFEBB1",
"} c #FFECB3",
/* pixels */
"                                                                ",
"                                                                ",
"                                                                ",
"                                                                ",
"                                                                ",
"                                                                ",
"                                                                ",
"                                         vvNvNvNNv              ",
"                                       vvvNvNNvNvNNv            ",
"                                     vNvNvCJTETYFvvvv           ",
"                                   vvvNNI/}}}`EIIIDvNv          ",
"                                  vvvNL'[}}~GvNNNvNNNvv         ",
"                                 vNvD/}}}~ANvNbvvNvNNvNb        ",
"                              6zvNvL[}})GvvNvbNvNvvbvNvN        ",
"                             66pvNE}}}EVvvNvNNbbNvNbNvNvv       ",
"                            6666pR}}[KNvvNvNbvvNbbNvvNvvN       ",
"                           66667dh_`DNvNvbbNbNNvvvNbNbvvN       ",
"                          66666uggjZNvNvNNvvvvbbNbNvvbNbv       ",
"                         77566ukkg9pcvvNbvNbNbvNbNbvvNbNN       ",
"                        57550tkkgw55pcvvbNvbNvbNvvbNbNvvv       ",
"                       65555ukkg96665pcvvvNbNvNvNbvNbvNbN       ",
"                      66550tkkg9666675pcNbNvvNvNNvbNbNvbv       ",
"                     66650ukkg976666575plNbvNvNvbbvvvvNNv       ",
"                    66667dgkg95766667575plbNvNvvvNNbNbbv        ",
"                   65555ukkg9575666666667pvvvvvNNvvNvNNv        ",
"                  66557ukkg975576666666657pcNvvNbbNvNvv         ",
"                 66660dkkg95575766666666755pcvvvvNvNvNv         ",
"                66666sgkg9577575666666665757pcNvvbNvNv          ",
"               66667uggg975757576666666675755pcvNNbvvN          ",
"              66666ukkg97575757566666666575755pvbvbNN           ",
"             66666ukkg9657575757666666667575557pcNvb            ",
"            16666ukkgw66757575756666666657575755pvv             ",
"            ;:77ukkg96666666666666666666666666666az             ",
"            =.:ugkf96666666666666666666666666666666             ",
"            $..ekg96666666666666666666666666666666              ",
"        4=*X....e96666666666666666666666666666666               ",
"       662X......:556666666666666666666666666666                ",
"      66662$......:5666666666666666666666666666                 ",
"      5667ss$.....X:66666666666666666666666666                  ",
"       67skgtX......:666666666666666666666666                   ",
"        rkkf92X......:5566666666666666666666                    ",
"         df9752X......:76666666666666666666                     ",
"          q65752X......:666666666666666666                      ",
"           675752X......:6666666666666666                       ",
"            577552X......:66666666666666                        ",
"             557752o......:666666666666                         ",
"              555752X......:6666666666                          ",
"               575752X......:66666666                           ",
"                666661X......:666666                            ",
"                 666662X......:6666                             ",
"                  566662X......:66                              ",
"                   666662X...+= 1                               ",
"                    566662X.+                                   ",
"                     566662X*                                   ",
"                      666662=                                   ",
"                       666664                                   ",
"                        6666                                    ",
"                         66                                     ",
"                                                                ",
"                                                                ",
"                                                                ",
"                                                                ",
"                                                                ",
"                                                                "
};
