/* XPM */
static char *f3e0c15cc28f4c32a17eaae4bd58815dDb6zc9m79hU2GFYH[] = {
/* columns rows colors chars-per-pixel */
"50 50 111 2 ",
"   c None",
".  c #000000",
"X  c #0B0000",
"o  c #060708",
"O  c #050B0C",
"+  c #090C0E",
"@  c #120000",
"#  c #1C0000",
"$  c #080E10",
"%  c #0C1416",
"&  c #0C1518",
"*  c #0F191C",
"=  c #101619",
"-  c #121A1C",
";  c #250000",
":  c #2C0000",
">  c #330000",
",  c #3C0101",
"<  c #121D20",
"1  c #172327",
"2  c #1A262A",
"3  c #1E292D",
"4  c #222C31",
"5  c #253237",
"6  c #27353B",
"7  c #450000",
"8  c #4C0100",
"9  c #530100",
"0  c #5B0100",
"q  c #640000",
"w  c #6B0100",
"e  c #740101",
"r  c #7B0101",
"t  c #2D3C43",
"y  c #33464D",
"u  c #374B53",
"i  c #394D54",
"p  c #3D525A",
"a  c #40555E",
"s  c #405760",
"d  c #425A63",
"f  c #47606A",
"g  c #4A646E",
"h  c #4B6570",
"j  c #4D6873",
"k  c #536E7A",
"l  c #54717C",
"z  c #830101",
"x  c #8C0100",
"c  c #940201",
"v  c #9B0201",
"b  c #A20100",
"n  c #AB0201",
"m  c #B60000",
"M  c #BD0201",
"N  c #C30100",
"B  c #CE0000",
"V  c #D20000",
"C  c #DB0403",
"Z  c #E50503",
"A  c #EC0503",
"S  c #F40503",
"D  c #FF0705",
"F  c #597683",
"G  c #5E7E8B",
"H  c #638492",
"J  c #6B8F9D",
"K  c #6E909F",
"L  c #769BAB",
"P  c #789EAF",
"I  c #7BA1B2",
"U  c #82AABD",
"Y  c #85AEC1",
"T  c #8BB4C6",
"R  c #8BB6C9",
"E  c #8EBBCE",
"W  c #93BBCD",
"Q  c #8FBCD0",
"!  c #91BDD1",
"~  c #93C0D5",
"^  c #9CC2D2",
"/  c #96C5DA",
"(  c #98C7DC",
")  c #9BC9DE",
"_  c #A0C4D4",
"`  c #A2CCDF",
"'  c #9CCBE0",
"]  c #ADD2E3",
"[  c #B6D7E6",
"{  c #BCDCE9",
"}  c #C4DFEA",
"|  c #C5E0EB",
" . c #C8E1EB",
".. c #C8E2ED",
"X. c #D1E7F0",
"o. c #D9EAF1",
"O. c #DDEDF2",
"+. c #DAECF4",
"@. c #E7F2F6",
"#. c #EAF5F8",
"$. c #ECF5F8",
"%. c #F2F9FA",
"&. c #F4FAFB",
"*. c #F5FAFB",
"=. c #F6FAFB",
"-. c #FAFDFC",
";. c #FBFDFC",
":. c #FCFEFD",
">. c #FDFEFD",
",. c #FDFFFD",
"<. c #FEFFFD",
/* pixels */
"                                                                                                    ",
"                                                                                                    ",
"                                              o . . . . .                                           ",
"                                        . . . @ ; ; ; # X . . .                                     ",
"                                      . . : c C Z Z Z C N c 0 # o .                                 ",
"                                    . . 0 C D D D D D D D D D C z # . .                             ",
"                                  . . 0 A D D D D D D D D D D D D B 7 . .                           ",
"                                  . , Z D D D D D D D D D D D D D D Z 9 . .                         ",
"                                . o M D D D D D D D D D D D S A A A A C > o                         ",
"                                . 0 D D D D D D A N v e 0 8 7 > > > , 7 : . .                       ",
"                              . @ M D D D D Z r : o . o $ * 1 1 2 2 1 = o . . .                     ",
"                              . 7 Z D D D A 9 . < i F K I I T W ^ ^ ^ T L k 4 . .                   ",
"                            . . z S D D D v . - g E ' ) ) ) ..#.=.=.%.#.+.{ W f o .                 ",
"                            . # m S D D D 9 o y j U ( ( ( ) O.,.,.,.,.,.,.-.X./ a .                 ",
"                            . 7 B S D D A : O p g K ( ( ( / ` ..@.=.-.,.,.-.o.' P + .               ",
"                        . . . e V D D D A ; $ d g l R ( ( ( / / ) ] { | } [ ` ( ! 4 .               ",
"                . . . o X . X v C D D D A > $ p h g H ~ ) / / / / / / / / ( / ~ I 5 .               ",
"              . @ 7 e b m # # m V D D D D 8 o i g g g H Y ~ ~ / ~ ~ ~ ~ ~ Y L H j 3 .               ",
"            . X n S D D C X : N V D D D D r . 6 h g g g j l F H H H H F k j g g g - .               ",
"            . 8 D D D D N . 7 B V S D D D N @ $ i g g g g f f f f f f g f g g g u O .               ",
"          . . x A A Z Z v . 0 B V D D D D D x X O 5 p g g g g h g g h g h h h p = .                 ",
"          . X b V B B V r . q V B S D D D D S c ; . O < 3 6 y y u u i i y 6 3 $ . .                 ",
"          . ; m B B B V w . e V B S D D D D D D C x 8 # X . . . o o o o . . o X .                   ",
"          . > N B B B B q . z V B A D D D D D D D D S C N n c z e w w e z v M 8 .                   ",
"          . 7 B B B B V 0 . x B B Z D D D D D D D D D D D D D D D D D D D D D 8 .                   ",
"          . 9 B B V B B 9 . x V B C D D D D D D D D D D D D D D D D D D D D S , .                   ",
"          . 9 V B B B B 9 . c V B V D D D D D D D D D D D D D D D D D D D D A > .                   ",
"          . 0 B B B B B 8 . c V B B A D D D D D D D D D D D D D D D D D D D A ; .                   ",
"          . 0 B B B B B 8 . c V B B C D D D D D D D D D D D D D D D D D D D C # .                   ",
"          . 8 B V B B B 9 . c V B B V S D D D D D D D D D D D D D D D D D D B X .                   ",
"          . 7 B B B B V 9 . x V B B B C D D D D D D D D D D D D D D D D D D b X .                   ",
"          . > B B B B V 0 . z B B B B B C D D D D D D D D D D D D D D D D S x . .                   ",
"          . ; M B B B B q . r V B B B B B C S D D D D D D D D D D D D D S V r .                     ",
"          . # m B B B V e . e V B B B B B B V Z S D D D D D D D D D S Z V B q .                     ",
"          . X b V B B V r . q V V B B B B B B B V V C A S S S S A C V B B B 8 .                     ",
"          . . z V B B V x . 0 V B B B B B B B B B B B B B B B B B B B B B N > .                     ",
"            . q V B B V v . 7 B B B B B B B B B B B B B B B B B B B B B B m ; .                     ",
"            . # x m N M x X , N B B B B B B B B B N N N N N N N N M B B V n @ .                     ",
"              . . # ; # @ . ; M B B B B B B B B r : : ; : : : : , e N B V v . .                     ",
"                . . . . . . # m V B B B B B B N : . . . . . : q v N B B V r . .                     ",
"                          . X b B B B B B B B m # .     . . e V V B B B V 0 .                       ",
"                          . . x V B B B B B B n X .       . 0 B B B B B B 7 .                       ",
"                            . w V B B B B V V b X .       . 7 B B B B B M ; .                       ",
"                            . 8 B B B B B B V v . .       . > N B B B B n @ .                       ",
"                            . > B V B V B V V c . .       . ; M V V B V x . .                       ",
"                            . X q x b n n b c 8 . .       . X 9 q w q q > .                         ",
"                            . . . . X @ @ X X . .         . . . . . . . . .                         ",
"                                    . . . .                                                         ",
"                                                                                                    ",
"                                                                                                    "
};
