/* XPM */
static char *_f6c7892bdd5470bb2c7c77122504ae5WYfu6TuWINNRkRbx[] = {
/* columns rows colors chars-per-pixel */
"64 64 65 1 ",
"  c None",
". c #37474F",
"X c #2B5C67",
"o c #2B5D68",
"O c #256875",
"+ c #246977",
"@ c #1A7C8A",
"# c #1A7C8B",
"$ c #1565C0",
"% c #1666C0",
"& c #1867C1",
"* c #1969C1",
"= c #1A69C2",
"- c #206EC3",
"; c #2270C4",
": c #2472C5",
"> c #2875C5",
", c #2D79C7",
"< c #307DC9",
"1 c #347FC9",
"2 c #0D94A6",
"3 c #0C96A8",
"4 c #03A7BC",
"5 c #01AABF",
"6 c #3682CB",
"7 c #3883CB",
"8 c #3E89CE",
"9 c #00ACC1",
"0 c #14B3C7",
"q c #27BACC",
"w c #30BDCF",
"e c #37BFD0",
"r c #448DCF",
"t c #4E96D2",
"y c #549BD4",
"u c #599ED5",
"i c #5EA4D7",
"p c #64A8D9",
"a c #69ACDB",
"s c #73B5DE",
"d c #76B8DF",
"f c #7EBFE1",
"g c #3BC0D1",
"h c #4AC9DA",
"j c #68D2DF",
"k c #4DD0E1",
"l c #77D6E1",
"z c #89C7E4",
"x c #8CCBE6",
"c c #91CEE7",
"v c #97D4E9",
"b c #9AD7EB",
"n c #9DD9EC",
"m c #A0DCEC",
"M c #91E2EC",
"N c #A5E0EE",
"B c #A7E2EF",
"V c #A8E2EF",
"C c #A9E4F0",
"Z c #ABE5F0",
"A c #AEE7F1",
"S c #AFE9F1",
"D c #B0E9F1",
"F c #B1EAF2",
"G c #B2EBF2",
/* pixels */
"                                                                ",
"                                                                ",
"                                                                ",
"                                                                ",
"                                                                ",
"                                                                ",
"                                                                ",
"                                                                ",
"        9999999999999999992..........3999999999999999999        ",
"        9999999999999999995X........X9999999999999999999        ",
"        99999999999999999995#OOOOOO#49999999999999999999        ",
"        999999999999999999999999999999999999999999999999        ",
"        999999999999999999999999999999999999999999999999        ",
"        99qllllllllllllllllllljhhjlllllllllllllllllllq99        ",
"        99gGGGGGGGGGGGGGGGGGGGMkkMGGGGGGGGGGGGGGGGGGGg99        ",
"        99gGGGGGGGGGGGGGGGGGGGMkkMGGGGGGGGGGGGGGGGGGGg99        ",
"        99gGGGGGGGGGGGGGGGGGGGMkkMGGGGGGGGGGGGGGGGGGGg99        ",
"        99gGGGGGGGGGGGGGGGGGGGMkkMGGGGGGGGGGGGGGGGGGGg99        ",
"        99gGGGGGGGGGGGGGGGGGGGMkkMGGGGGGGGGGGGGGGGGGGg99        ",
"        99gGGGGGGGGGGGGGGGGGGGMkkMGGGGGGGGGGGGGGGGGGGg99        ",
"        99gGGGGGGGGGGGGGGGGGGGMkkMGGGGGGGGGGGGGGGGGGGg99        ",
"        99gGGGGGGGGGGGGGGGGGGGMkkMGGGGGGGGGGGGGGGGGGGg99        ",
"        99gGGGGGGGGGGGGGGGGGGGMkkMGGGGGGGGGGGGGGGGGGGg99        ",
"        99gGGGGGGGGGGGGGGGGGGGMkkMGGGGGGGGGGGGGGGGGGGg99        ",
"        99gGGGGGGGGGGGGGGGGGGGMkkMGGGGGGGGGGGGGGGGGGGg99        ",
"        99gGGGGGGGGGGGGGGGGGGGMkkMGGGGGGGGGGGGGGGGGGGg99        ",
"        99gGGGGGGGGGGGGGGGGGGGMkkMGGGGGGGGGGGGGGGGGGGg99        ",
"        99gGGGGGGGGGGGGGGGGGGGMkkMGGGGGGGGGGGGGGGGGGGg99        ",
"        99gGGGGGGGGGGGGGGGbrGGMkkMGG8bGGGGGGGGGGGGGGGg99        ",
"        99gGGGGGGGGGGGGGBi*$GGMkkMGG$&ymGGGGGGGGGGGGGg99        ",
"        99gGGGGGGGGGGGSs;$$$GGMkkMGG$$$-aAGGGGGGGGGGGg99        ",
"        99gGGGGGGGGGGz<$$$$$GGMkkMGG$$$$$,fGGGGGGGGGGg99        ",
"        99gGGGGGGGGbr$$$$$$$GGMkkMGG$$$$$$$8vGGGGGGGGg99        ",
"        99gGGGGGGGB6$$$$$$$$GGMkkMGG$$$$$$$$6VGGGGGGGg99        ",
"        99gGGGGGGGGGz:$$$$$$GGMkkMGG$$$$$$:sGGGGGGGGGe99        ",
"        99gGGGGGGGGGGVp*$$$$GGMkkMGG$$$$*uVGGGGGGGGGGe99        ",
"        99gGGGGGGGGGGGGnt$$$GGMkkMGG$$$rnGGGGGGGGGGGGe99        ",
"        99gGGGGGGGGGGGGGGc7$GGMkkMGG$6xGGGGGGGGGGGGGGe99        ",
"        99gGGGGGGGGGGGGGGGGdGGMkkMGGdGGGGGGGGGGGGGGGGh49        ",
"        99gGGGGGGGGGGGGGGGGGGGMkkMGGGGGGGGGGGGGGGGGGGe59        ",
"        99gGGGGGGGGGGGGGGGGGGGMkkMGGGGGGGGGGGGGGGGGGGg99        ",
"        99gGGGGGGGGGGGGGGGGGGGMkkMGGGGGGGGGGGGGGGGGGGg99        ",
"        99gGGGGGGGGGGGGGGGGGGGMkkMGGGGGGGGGGGGGGGGGGGg99        ",
"        99gGGGGGGGGGGGGGGGGGGGMkkMGGGGGGGGGGGGGGGGGGGg99        ",
"        99gGGGGGGGGGGGGGGGGGGGMkkMGGGGGGGGGGGGGGGGGGGg99        ",
"        99gGGGGGGGGGGGGGGGGGGGMkkMGGGGGGGGGGGGGGGGGGGg99        ",
"        99gGGGGGGGGGGGGGGGGGGGMkkMGGGGGGGGGGGGGGGGGGGg99        ",
"        95gGGGGGGGGGGGGGGGGGGGMkkMGGGGGGGGGGGGGGGGGGGg99        ",
"        99gGGGGGGGGGGGGGGGGGGGMkkMGGGGGGGGGGGGGGGGGGGg99        ",
"        99gGGGGGGGGGGGGGGGGGGGMkkMGGGGGGGGGGGGGGGGGGGg99        ",
"        99gGGGGGGGGGGGGGGGGGGGMkkMGGGGGGGGGGGGGGGGGGGg99        ",
"        99gGGGGGGGGGGGGGGGGGGGMkkMGGGGGGGGGGGGGGGGGGGg99        ",
"        99gGGGGGGGGGGGGVGGGGGGMkkMGGGGGGGGGGGGGGGGGGGg99        ",
"        990gggggggggggghgggggggweeeeggggggggggggggggg099        ",
"        999999999999599999999999999999999999999999999999        ",
"        999999999999999999999999999999999999999999999999        ",
"                                                                ",
"                                                                ",
"                                                                ",
"                                                                ",
"                                                                ",
"                                                                ",
"                                                                ",
"                                                                "
};
