/* XPM */
static char *result[] = {
/* columns rows colors chars-per-pixel */
"64 64 167 2 ",
"   c #050503",
".  c #070905",
"X  c #0B0B06",
"o  c #0D0D09",
"O  c #100F0A",
"+  c #14130D",
"@  c #1A160E",
"#  c #16190C",
"$  c #1A1B0E",
"%  c #161512",
"&  c #191611",
"*  c #1C1B13",
"=  c #1E1E1C",
"-  c #211F0F",
";  c #221E13",
":  c #201F1A",
">  c #1E2113",
",  c #1F211B",
"<  c #232415",
"1  c #2A2415",
"2  c #262A15",
"3  c #2C2916",
"4  c #25241B",
"5  c #2A261B",
"6  c #26291A",
"7  c #2C2B1C",
"8  c #342A17",
"9  c #382E17",
"0  c #322C1C",
"q  c #392F1B",
"w  c #2F3017",
"e  c #2D311B",
"r  c #3C3017",
"t  c #33321D",
"y  c #3C321C",
"u  c #363A1D",
"i  c #383B1E",
"p  c #272622",
"a  c #292722",
"s  c #2C2B22",
"d  c #2E2D2A",
"f  c #312E23",
"g  c #2F3121",
"h  c #2F302A",
"j  c #343323",
"k  c #3A3524",
"l  c #363824",
"z  c #3B3B25",
"x  c #34332B",
"c  c #3A362A",
"v  c #36382A",
"b  c #3C3B2B",
"n  c #363631",
"m  c #3D3C34",
"M  c #43351B",
"N  c #423C26",
"B  c #4C3F27",
"V  c #423C2B",
"C  c #413E35",
"Z  c #413F3B",
"A  c #37411A",
"S  c #3D4225",
"D  c #3D422C",
"F  c #3E4231",
"G  c #444224",
"H  c #4A4324",
"J  c #414E23",
"K  c #43432B",
"L  c #4A442B",
"P  c #454A2C",
"I  c #4A4A2C",
"U  c #554321",
"Y  c #534B2C",
"T  c #5C4D2A",
"R  c #56512E",
"E  c #515B2F",
"W  c #5C5A2F",
"Q  c #444332",
"!  c #4A4432",
"~  c #4D4C34",
"^  c #46453A",
"/  c #4C4739",
"(  c #4C4C3B",
")  c #524731",
"_  c #534C34",
"`  c #5D4E35",
"'  c #534D3B",
"]  c #4F5436",
"[  c #4D503C",
"{  c #545135",
"}  c #5C5336",
"|  c #545C34",
" . c #5B5B34",
".. c #55543C",
"X. c #5B533C",
"o. c #5C5A3B",
"O. c #615231",
"+. c #635B36",
"@. c #6D5934",
"#. c #62563D",
"$. c #635B3E",
"%. c #685939",
"&. c #5B623B",
"*. c #61633B",
"=. c #76643B",
"-. c #444541",
";. c #484841",
":. c #534E43",
">. c #545245",
",. c #5B5541",
"<. c #5C5A42",
"1. c #54534C",
"2. c #59554C",
"3. c #5C5A4A",
"4. c #5A5750",
"5. c #615742",
"6. c #645B42",
"7. c #6B5D42",
"8. c #645E4B",
"9. c #685F4A",
"0. c #5E6146",
"q. c #636244",
"w. c #6D6246",
"e. c #646B44",
"r. c #6C6A46",
"t. c #67634B",
"y. c #6E664C",
"u. c #6D6B4D",
"i. c #766644",
"p. c #72664A",
"a. c #74694B",
"s. c #7C6D4B",
"d. c #6F7141",
"f. c #6E724F",
"g. c #7F7547",
"h. c #74734A",
"j. c #6B6353",
"k. c #6E6950",
"l. c #706552",
"z. c #746C55",
"x. c #796E54",
"c. c #726D5C",
"v. c #777052",
"b. c #7B7455",
"n. c #7C7258",
"m. c #7E7A58",
"M. c #767465",
"N. c #80744E",
"B. c #837754",
"V. c #827B54",
"C. c #81755A",
"Z. c #8B7E5F",
"A. c #827A65",
"S. c #8A7D61",
"D. c #7C8155",
"F. c #7C8158",
"G. c #8C8554",
"H. c #9B905F",
"J. c #8D8462",
"K. c #8F8C63",
"L. c #928B64",
"P. c #93876B",
"I. c #9F906B",
"U. c #A39061",
"Y. c #A49571",
"T. c #A19D73",
"R. c None",
/* pixels */
"R.R.R.R.R.R.R.R.R.R.R.R.R.R.R.R.R.R.R.R.R.R.R.R.R.R.R.R.R.R.R.R.R.R.R.R.R.R.R.R.R.R.R.R.R.R.R.R.R.R.R.R.R.R.R.R.R.R.R.R.R.R.R.R.",
"R.R.R.R.R.R.R.R.R.R.R.R.R.R.R.R.R.R.R.R.R.R.R.R.R.R.R.R.R.R.R.R.R.R.R.R.R.R.R.R.R.R.R.R.R.R.R.R.R.R.R.R.R.R.R.R.R.R.R.R.R.R.R.R.",
"R.R.R.R.R.R.R.R.R.R.R.R.R.R.R.R.R.R.R.R.R.R.R.R.R.R.R.R.R.R.R.R.R.R.R.R.R.R.R.R.R.R.R.R.R.R.R.R.R.R.R.R.R.R.R.R.R.R.R.R.R.R.R.R.",
"R.R.R.R.R.R.R.R.R.R.R.R.R.R.R.R.R.R.R.R.R.R.R.R.R.R.R.R.R.R.R.R.R.R.R.R.R.R.R.R.R.R.R.R.R.R.R.R.R.R.R.R.R.R.R.R.R.R.R.R.R.R.R.R.",
"R.R.R.R.R.R.R.R.R.R.R.R.R.R.R.R.R.R.R.R.R.R.R.R.R.R.> R.R.R.R.R.R.R.R.R.R.R.R.R.R.R.R.R.R.R.R.R.R.R.R.R.R.R.R.R.R.R.R.R.R.R.R.R.",
"R.R.R.R.R.R.R.R.R.R.R.R.R.R.R.R.R.R.R.R.R.R.R.R.{  .P l K { R.R.R.R.R.R.R.R.R.R.R.R.R.R.R.R.R.R.R.R.R.R.R.R.R.R.R.R.R.R.R.R.R.R.",
"R.R.R.R.R.R.R.R.R.R.R.R.R.R.R.R.R.R.R.R.R.X.&.H.D...P S S o.r.&.R } K t j Q 6.b.8.R.R.R.R.R.R.R.R.R.R.R.R.R.R.R.R.R.R.R.R.R.R.R.",
"R.R.R.R.R.R.R.R.R.R.R.R.R.R.R.R.R.R.R.R.R.K.*. .o.I z A S o.6.} O.w.] b z K } i.,.R.R.R.R.R.R.R.R.R.R.R.R.R.R.R.R.R.R.R.R.R.R.R.",
"R.R.R.R.R.R.R.R.R.R.R.R.R.R.R.R.R.R.R.R.R.5 5 t b b 3 c _ l 4 & R.R.R.R.R.R.R.R.R.R.R.R.R.R.R.R.R.R.R.R.R.R.R.R.R.R.R.R.R.R.R.R.",
"R.R.R.R.R.R.R.R.R.R.R.R.R.R.R.R.R.R.R.R.R.R.R.R.* 4 j j.n.* R.R.R.R.R.R.R.R.R.R.R.R.R.R.R.R.R.R.R.R.R.R.R.R.R.R.R.R.R.R.R.R.R.R.",
"R.R.R.R.R.R.R.R.R.R.R.R.R.R.R.R.R.R.R.R.R.R.R.R.R.R.R.#.s.R.R.R.R.R.R.R.R.R.R.R.R.R.R.R.R.R.R.R.R.R.R.R.R.R.R.R.R.R.R.R.R.R.R.R.",
"R.R.R.R.R.R.R.R.R.R.R.R.R.R.R.R.R.R.R.R.R.R.R.R.R.R.R.F X.R.R.R.R.R.R.R.R.R.R.R.R.R.R.R.R.R.R.R.R.R.R.R.R.R.R.R.R.R.R.R.R.R.R.R.",
"R.R.R.R.R.R.R.R.R.R.R.< 1 7 j l L V V ; < 3 t k z t < 4 7 * @ @ R.R.R.R.R.R.R.R.R.R.R.R.R.R.R.R.R.R.R.R.R.R.R.R.R.R.R.R.R.R.R.R.",
"R.R.R.R.R.R.R.R.R.R.K N k 0 7 s b L V 4 3 # 2 3 t k 7 e k y ; 1 7 t < R.R.R.R.R.R.R.R.R.R.R.R.R.R.R.R.R.R.R.R.R.R.R.R.R.R.R.R.R.",
"R.R.R.R.R.R.R.R.R.R.} I H 0 7 v ) I b * M r H i L I J P } G < 4 e t 1 1 < + R.R.R.R.R.R.R.R.R.R.R.R.R.R.R.R.R.R.R.R.R.R.R.R.R.R.",
"R.R.R.R.R.R.R.R.R.R.N K K D D K X.6.} e G R =.+.*...z c _ O.M k l k 9 7 0 5 0 f R.R.R.R.R.R.R.R.R.R.R.R.R.R.R.R.R.R.R.R.R.R.R.R.",
"R.R.R.R.R.R.R.R.R.R.4 l u r N q.%.%.$.V / <.} ~ ' ( j 4 a N U U I P P y 0 y 5 6 7 R.R.R.R.R.R.R.R.R.R.R.R.R.R.R.R.R.R.R.R.R.R.R.",
"R.R.R.R.R.R.R.R.R.R.R.& - 8 1 s N H G l _ / V ' X.5.8.8.y.6.L K K Q K 7 & 8 1 4 4 4 R.R.R.R.R.R.R.R.R.R.R.R.R.R.R.R.R.R.R.R.R.R.",
"R.R.R.R.R.R.R.R.R.R.R.: ; 0 0 x x b 3 4 K Y.G.b.9.n.z.:.:.x.b.W  .+.+.I _ r.B.I.P.3 6 R.R.R.R.R.R.R.R.R.R.R.R.R.R.R.R.R.R.R.R.R.",
"R.R.R.R.R.R.R.R.R.R.R.R.R.5 q M 8 G A b D <.~ <.B S.C.! d f } H K l K D G c ! u.z.s 4 s R.R.R.R.R.R.R.R.R.R.R.R.R.R.R.R.R.R.R.R.",
"R.R.R.R.R.R.R.R.R.R.R.R.R.R.R.R.0 z e b D s z s l 5.,.s d = * O O X + > * > 4 % 4 7 < 7 = R.R.R.R.R.R.R.R.R.R.R.R.R.R.R.R.R.R.R.",
"R.R.R.R.R.R.R.R.R.R.R.R.R.R.R.R.. 4 3 6 Q ( S j s 4 5 + O o O 0 j 1 2 k 2 4 2 6 h s = 7 = * e b p R.R.R.R.R.R.R.R.R.R.R.R.R.R.R.",
"R.R.R.R.R.R.R.R.R.R.R.R.R.R.R.R.R.< u w t g j j j V b 7 < s 7 c ' X.H ) L k 4 N L Q s * = % * s = R.R.R.R.R.R.R.R.R.R.R.R.R.R.R.",
"R.R.R.R.R.R.R.R.R.R.R.R.R.R.R.R.R.. b ! z < a j 6 4 = < 4 7 s f k ' { b V ' L X.w.o.3.m p % * s p R.R.R.R.R.R.R.R.R.R.R.R.R.R.R.",
"R.R.R.R.R.R.R.R.R.R.R.R.R.R.R.R.R.R.x X.' ) x x 6 6 s 7 l 0 k B k V ! c C / j * b b n -.d         R.R.R.R.R.R.R.R.R.R.R.R.R.R.R.",
"R.R.R.R.R.R.R.R.R.R.R.R.R.R.R.R.R.R.R.R.& 5 s s e t 0 4 4 0 t t f j f z 0 7 s s x b x m Z n n : R.R.R.R.R.R.R.R.R.R.R.R.R.R.R.R.",
"R.R.R.R.R.R.R.R.R.R.R.R.R.R.R.R.R.R.R.R.R.R.R.4 5 1 0 s a 5 7 e 4 4 j l < + % < 4 v m d R.R.% R.R.R.R.R.R.R.R.R.R.R.R.R.R.R.R.R.",
"R.R.R.R.R.R.R.R.R.R.R.R.R.R.R.R.R.R.R.R.* 5 7 1 & @ ; ; < 4 6 < > 4 5 7 ; 0 f < 1 : f d % = R.R.R.R.R.R.R.R.R.R.R.R.R.R.R.R.R.R.",
"R.R.R.R.R.R.R.R.R.R.R.R.R.R.R.& ! K 7 D S 7 5 < ; + + $ + 4 3 7 + @ R.R.R.' ..+ R.R.R.R.R.R.R.R.R.R.R.R.R.R.R.R.R.R.R.R.R.R.R.R.",
"R.R.R.R.R.R.R.R.R.R.R.R.R.R.~ L ,.o.P o.| l 4 * + R.R.% * 0 k D z * R.R.R.q.e.R.R.R.R.R.R.R.R.R.R.R.R.R.R.R.R.R.R.R.R.R.R.R.R.R.",
"R.R.R.R.R.R.R.R.R.R.R.R.R.R.' C >.q.n.] ..l o R.R.R.R.; e P S j { K R.R.+.+.&. .R.R.R.R.R.R.R.R.R.R.R.R.R.R.R.R.R.R.R.R.R.R.R.R.",
"R.R.R.R.R.R.R.R.R.R.R.R.R.z N c P e v 4 R.R.R.R.R.R.R.7 7 ! N n F > R.R.B.*.| b.#.@.T &.&.| *.u.n R.R.R.R.R.R.R.R.R.R.R.R.R.R.R.",
"R.R.R.R.R.R.R.R.R.R.R.R.R.l f f k s R.R.R.R.R.R.R.R.5 _ _ a.s.s o R.R.R.o.I S ( x B B I z P w.' d R.R.R.R.R.R.R.R.R.R.R.R.R.R.R.",
"R.R.R.R.R.R.R.R.R.R.R.R.< t : * = + R.R.R.R.R.R.R.R.X.} #.x.V X R.R.R.R.~ D l x a x L K G I 6.Q 4 R.R.R.R.R.R.R.R.R.R.R.R.R.R.R.",
"R.R.R.R.R.R.R.R.R.R.R.R.6 t f V V R.R.R.R.R.R.R.R.R.| o.D j o R.R.R.R.R.f * * @ * a s f 4 7 7 7 R.R.R.R.R.R.R.R.R.R.R.R.R.R.R.R.",
"R.R.R.R.R.R.R.R.R.R.R.R.1 y 8 q k R.R.R.R.R.R.R.R.R.z { 3 X R.R.R.R.R.R.4 # + + R.R.R.R.R.R.R.R.R.R.R.R.R.R.R.R.R.R.R.R.R.R.R.R.",
"R.R.R.R.R.R.R.R.R.R.R.R.9 M q 1 & R.R.R.R.R.R.R.R.R._ ~ S o R.R.R.R.R.R.R.R.R.R.R.R.R.R.R.R.R.R.R.R.R.R.R.R.R.R.R.R.R.R.R.R.R.R.",
"R.R.R.R.R.R.R.R.R.R.R.1 N N 5 * R.R.R.R.R.R.R.R.R.R.Q F S . R.R.R.R.R.R.R.R.R.R.R.R.R.R.R.R.R.R.R.R.R.R.R.R.R.R.R.R.R.R.R.R.R.R.",
"R.R.R.R.R.R.R.R.R.R.R.N L ) b & R.R.R.R.R.R.R.R.R.b Q j 7 R.R.R.R.R.R.R.R.R.R.R.R.R.R.R.R.R.R.R.R.R.R.R.R.R.R.R.R.R.R.R.R.R.R.R.",
"R.R.R.R.R.R.R.R.R.R.R.b L K b R.R.R.R.R.R.R.R.R.R...<.! < R.R.R.R.R.R.R.R.R.R.R.R.R.R.R.R.R.R.R.R.R.R.R.R.R.R.R.R.R.R.R.R.R.R.R.",
"R.R.R.R.R.R.R.R.R.R.R.1 7 4 4 R.R.R.R.R.R.R.R.R.4 0.p.<.+ R.R.R.R.R.R.R.R.R.R.R.R.R.R.R.R.R.R.R.R.R.R.R.R.R.R.R.R.R.R.R.R.R.R.R.",
"R.R.R.R.R.R.R.R.R.R.R.* O 4 o R.R.R.R.R.R.R.R.j b ....s R.R.R.R.R.R.R.R.R.R.R.R.R.R.R.R.R.R.R.R.R.R.R.R.R.R.R.R.R.R.R.R.R.R.R.R.",
"R.R.R.R.R.R.R.R.R.R.o 8 j + R.R.R.R.R.R.R.R.R.s 1.:.' 4 g t R.R.R.R.R.R.R.R.R.R.R.R.R.R.R.R.R.R.R.R.R.R.R.R.R.R.R.R.R.R.R.R.R.R.",
"R.R.R.R.R.R.R.R.R.9 ; z k R.R.R.R.R.R.R.R.R.R.Z j.2.2.d m V.g.t R.R.R.R.R.R.R.R.R.R.R.R.R.R.R.R.R.R.R.R.R.R.R.R.R.R.R.R.R.R.R.R.",
"R.R.R.R.R./ { { | <.N s ..b.R.R.R.R.R.R.R.R.R.4 >.Q m s h 5.U.G.W t R.R.R.R.R.R.R.R.R.R.R.R.R.R.R.R.R.R.R.R.R.R.R.R.R.R.R.R.R.R.",
"R.R.R.R.R.R...v.y.:.D P q.J.T.e.R.R.R.R.R.R.R.R.. : j s 5 5 V 0.h.d.E t R.R.R.R.R.R.R.R.R.R.R.R.R.R.R.R.R.R.R.R.R.R.R.R.R.R.R.R.",
"R.R.R.R.R.R.R.R.l.>.( ( c.S.C.L.<.R.R.R.R.R.R.R.R.R.R.+ 7 k 4 6 j ( *.K D R.R.R.R.R.R.R.R.R.R.R.R.R.R.R.R.R.R.R.R.R.R.R.R.R.R.R.",
"R.R.R.R.R.R.R.R.R.s F 3.A.x.u.i.t.h / n R.R.R.R.R.R.R.R.R.+ * 7 6 4 b C v o._ R.R.R.R.R.R.R.R.R.R.R.R.R.R.R.R.R.R.R.R.R.R.R.R.R.",
"R.R.R.R.R.R.R.R.R.R.R.7 3.y.,.5.^ c ,.c m R.R.R.R.R.R.R.R.R.R.R.* V ' V + f 8._ ~ X.n.u.,.,.R.R.R.R.R.R.R.R.R.R.R.R.R.R.R.R.R.R.",
"R.R.R.R.R.R.R.R.R.R.R.R.R.c 3.c.= l f.n.R.R.R.R.R.R.R.R.R.R.R.R.R.R.R.o + 1 5 0 K [ m.D.F.m.j v ' ' 8.C R.R.R.R.R.R.R.R.R.R.R.R.",
"R.R.R.R.R.R.R.R.R.R.R.R.R.R.R.n R.R.e.u.;.R.R.R.R.R.R.R.R.R.R.R.R.R.R.R.R.1 1 k X.b I P Q ^ 4 c ( x s R.R.R.R.R.R.R.R.R.R.R.R.R.",
"R.R.R.R.R.R.R.R.R.R.R.R.R.R.R.R.R.R.R.R.R.R.R.R.R.R.R.R.R.R.R.R.R.R.R.R.* 7 8 ) a.} T Y ~ 3.x % >.1.4.-.R.R.R.R.R.R.R.R.R.R.R.R.",
"R.R.R.R.R.R.R.R.R.R.R.R.R.R.R.R.R.R.R.R.R.R.R.R.R.R.R.R.R.R.R.R.R.R.R.V 5 ; M ) 6.#.7.w.j.M.2.R.1.m d R.R.R.R.R.R.R.R.R.R.R.R.R.",
"R.R.R.R.R.R.R.R.R.R.R.R.R.R.R.R.R.R.R.R.R.R.R.R.R.R.R.R.R.R.R.R.R.R.R.j & O : ; : : R.R.R.R.R.R.R.R.R.R.R.R.R.R.R.R.R.R.R.R.R.R.",
"R.R.R.R.R.R.R.R.R.R.R.R.R.R.R.R.R.R.R.R.R.R.R.R.R.R.R.R.R.R.R.R.R.R.R.R.R.R.R.R.R.R.R.R.R.R.R.R.R.R.R.R.R.R.R.R.R.R.R.R.R.R.R.R.",
"R.R.R.R.R.R.R.R.R.R.R.R.R.R.R.R.R.R.R.R.R.R.R.R.R.R.R.R.R.R.R.R.R.R.R.R.R.R.R.R.R.R.R.R.R.R.R.R.R.R.R.R.R.R.R.R.R.R.R.R.R.R.R.R.",
"R.R.R.R.R.R.R.R.R.R.R.R.R.R.R.R.R.R.R.R.R.R.R.R.R.R.R.R.R.R.R.R.R.R.R.R.R.R.R.R.R.R.R.R.R.R.R.R.R.R.R.R.R.R.R.R.R.R.R.R.R.R.R.R.",
"R.R.R.R.R.R.R.R.R.R.R.R.R.R.R.R.R.R.R.R.R.R.R.R.R.R.R.R.R.R.R.R.R.R.R.R.R.R.R.R.R.R.R.R.R.R.R.R.R.R.R.R.R.R.R.R.R.R.R.R.R.R.R.R.",
"R.R.R.R.R.R.R.R.R.R.R.R.R.R.R.R.R.R.R.R.R.R.R.R.R.R.R.R.R.R.R.R.R.R.R.R.R.R.R.R.R.R.R.R.R.R.R.R.R.R.R.R.R.R.R.R.R.R.R.R.R.R.R.R.",
"R.R.R.R.R.R.R.R.R.R.R.R.R.R.R.R.R.R.R.R.R.R.R.R.R.R.R.R.R.R.R.R.R.R.R.R.R.R.R.R.R.R.R.R.R.R.R.R.R.R.R.R.R.R.R.R.R.R.R.R.R.R.R.R.",
"R.R.R.R.R.R.R.R.R.R.R.R.R.R.R.R.R.R.R.R.R.R.R.R.R.R.R.R.R.R.R.R.R.R.R.R.R.R.R.R.R.R.R.R.R.R.R.R.R.R.R.R.R.R.R.R.R.R.R.R.R.R.R.R.",
"R.R.R.R.R.R.R.R.R.R.R.R.R.R.R.R.R.R.R.R.R.R.R.R.R.R.R.R.R.R.R.R.R.R.R.R.R.R.R.R.R.R.R.R.R.R.R.R.R.R.R.R.R.R.R.R.R.R.R.R.R.R.R.R.",
"R.R.R.R.R.R.R.R.R.R.R.R.R.R.R.R.R.R.R.R.R.R.R.R.R.R.R.R.R.R.R.R.R.R.R.R.R.R.R.R.R.R.R.R.R.R.R.R.R.R.R.R.R.R.R.R.R.R.R.R.R.R.R.R.",
"R.R.R.R.R.R.R.R.R.R.R.R.R.R.R.R.R.R.R.R.R.R.R.R.R.R.R.R.R.R.R.R.R.R.R.R.R.R.R.R.R.R.R.R.R.R.R.R.R.R.R.R.R.R.R.R.R.R.R.R.R.R.R.R."
};
