/* XPM */
static char *mach_left_11676580643[] = {
/* columns rows colors chars-per-pixel */
"64 64 169 2 ",
"   c None",
".  c #040402",
"X  c #080705",
"o  c #090907",
"O  c #0D0D09",
"+  c #110F0A",
"@  c #13130C",
"#  c #19160C",
"$  c #17190F",
"%  c #1B190E",
"&  c #151511",
"*  c #191613",
"=  c #171812",
"-  c #1C1C13",
";  c #1E1E18",
":  c #221B0E",
">  c #211E15",
",  c #281F11",
"<  c #221F18",
"1  c #1F2217",
"2  c #22240E",
"3  c #232315",
"4  c #2A2515",
"5  c #272815",
"6  c #2C2916",
"7  c #24231A",
"8  c #29261A",
"9  c #26291B",
"0  c #2B2B1C",
"q  c #322A17",
"w  c #322C1D",
"e  c #382F1E",
"r  c #2F321D",
"t  c #32311D",
"y  c #3B311D",
"u  c #353D19",
"i  c #393A1F",
"p  c #252421",
"a  c #292721",
"s  c #2D2C22",
"d  c #2F2F2D",
"f  c #322E22",
"g  c #312F29",
"h  c #2E3122",
"j  c #343223",
"k  c #3A3524",
"l  c #373B25",
"z  c #3C3B24",
"x  c #33322C",
"c  c #39362A",
"v  c #3C3B2C",
"b  c #373732",
"n  c #3C3A31",
"m  c #3E3D39",
"M  c #463F1F",
"N  c #433B25",
"B  c #4B3F26",
"V  c #423D2B",
"C  c #483F2E",
"Z  c #413E33",
"A  c #403F3B",
"S  c #3D4226",
"D  c #3D412A",
"F  c #3F4030",
"G  c #454325",
"H  c #4D4225",
"J  c #434A24",
"K  c #4D4A26",
"L  c #43442B",
"P  c #4A422C",
"I  c #434A2B",
"U  c #4D4B2C",
"Y  c #534425",
"T  c #524926",
"R  c #5E4A26",
"E  c #514329",
"W  c #544A2D",
"Q  c #594C2D",
"!  c #495727",
"~  c #4A532C",
"^  c #57502E",
"/  c #575A2C",
"(  c #444333",
")  c #4B4534",
"_  c #464B33",
"`  c #4B4B32",
"'  c #46453B",
"]  c #4C4539",
"[  c #47493B",
"{  c #4E4D3B",
"}  c #524C34",
"|  c #5B4D32",
" . c #534D3B",
".. c #584F3D",
"X. c #4F5536",
"o. c #535335",
"O. c #5B5335",
"+. c #535936",
"@. c #5A5C36",
"#. c #55533B",
"$. c #5B543C",
"%. c #53593B",
"&. c #5B5B3B",
"*. c #614F2D",
"=. c #655632",
"-. c #64563B",
";. c #645D3C",
":. c #5B6037",
">. c #64603E",
",. c #6D633B",
"<. c #72643A",
"1. c #746F3E",
"2. c #4D4C43",
"3. c #544E42",
"4. c #525245",
"5. c #5C5545",
"6. c #565846",
"7. c #5D5944",
"8. c #525048",
"9. c #5A544A",
"0. c #5D5B49",
"q. c #5C5C52",
"w. c #625741",
"e. c #645C44",
"r. c #6B5E46",
"t. c #615A4B",
"y. c #5E6140",
"u. c #636343",
"i. c #6A6145",
"p. c #626842",
"a. c #6C6943",
"s. c #64624C",
"d. c #6B624B",
"f. c #666C4B",
"g. c #6D6B4C",
"h. c #746B42",
"j. c #706148",
"k. c #746A4D",
"l. c #786B49",
"z. c #6D714D",
"x. c #727344",
"c. c #73744C",
"v. c #7B744C",
"b. c #7C784B",
"n. c #636253",
"m. c #6A6350",
"M. c #62615D",
"N. c #757050",
"B. c #7B7352",
"V. c #7C7B54",
"C. c #73705F",
"Z. c #79715C",
"A. c #7A7B6D",
"S. c #817349",
"D. c #83794D",
"F. c #807753",
"G. c #837A56",
"H. c #81775D",
"J. c #837A5D",
"K. c #8A7B5F",
"L. c #877E62",
"P. c #8D815E",
"I. c #928659",
"U. c #918562",
"Y. c #918864",
"T. c #958C72",
"R. c #A4936A",
"E. c #B9A67D",
"W. c #BEAC87",
/* pixels */
"                                                                                                                                ",
"                                                                                                                                ",
"                                                                                                                                ",
"                                                                                                                                ",
"                                                                                                                                ",
"                                                                          7 <                                                   ",
"                                                                  z >.@.D _ j @.c.                                              ",
"                                                T.R.k.&.D L a.D.<.c.F.%.S ! j %.c.b.@.5.                                        ",
"                                                C H k j 9 j ( O.K | $.%.J u 3 G G G o.7.                                        ",
"                                                                  @ 9 ( 0.m 3 z h -                                             ",
"                                                                      < K.] O                                                   ",
"                                                                        B.k                                                     ",
"                                                                        { 9           - O                                       ",
"                                                              3 0 q q 0 j t t k k t 5 3 3 0 N L V j j 0 3                       ",
"                                                        - 8 w r 0 3 5 H } z z z t 5 5 2 4 7 k N k 9 3 w y k f                   ",
"                                                    0 w 0 q N L j t t Q X.L J #.^ K K M e 8 V } C h 8 e N P L                   ",
"                                                j 0 y E B H U X.Y Y *.-.k s v u.>.,.<.O.c j O.i.` D v v t r $                   ",
"                                              0 h r E H k ` :.u.;.=.Y ) ) c j V v c v [ v V =.*.O.} t % = -                     ",
"                                            7 j #.O.O.v 0 G $.} o.>.l.U.L.Z. .r.-.} P  .w 8 r i k 7 # # + @                     ",
"                                          9 j $.W.E.U.G.a.x.D.b.1.1.B.2.2.r.3.w.v y.c.H.< @ % f 8 > % # + &                     ",
"                                        7 j L #.) ( s 3 9 r 0 3 z K U a b w.5.k.f s - 7 = @ $ 5 % > > +                         ",
"                                      ; a v _ 6.{ S S 3 6 k 5 5 j < & & 7 f f 8 O O O o + O $ 3 O                               ",
"                                A.0.{ V x v { &.#.0 7 k U U N ) $.) j 9 9 6 9 1 & @ = 7 - + % @                                 ",
"                                A.6.x d n 3.g.S.B.-.} } L W i.k.d.#.( j s f s 3 1 - & # % 3 7 O                                 ",
"                                n.` s s 8.q.8.i.( j $.5.v ) V w f k k f 9 - 9 7 1 7 = 9 v v -                                   ",
"                                o d d Z M.2.' _ b d v j 0 j g f f e q w s 8 0 9 s s n L P )                                     ",
"                                  g p - d m { ( s 3 - 3 j j s 0 r r t 7 < < q 8 8 -                                             ",
"                                    p ; g 3.n > # < - % 0 w 9 - 9 0 0 7 f w 4 3 3 < - $                                         ",
"                                            O > % z ) 3 @ % < - % 3 1 $ # # @ O O o o $ 9 3 % $ @ +                             ",
"                                                  _ z.      O % t k j # @ % X X o O # - 9 5 9 ( v w <                           ",
"                                                  o.p._       V ` L V < -         o - l D L ( [ v 8 w                           ",
"                                n.%.I +.I L Q | P.x./ I.)   f %.( t I 3 w               = j j D V 3 7 -                         ",
"                                s.r.@.I #.` *.B s.+.G h.c     9 m e.$.l 7 -                 8 c 9 < - 3 +                       ",
"                                4.e.>.J U W ) c { v I @.h       8 ..l.e.L k                     = < - - -                       ",
"                                v P ) z L L v p * - 3 9 ;         k | $.O.w.                    8 V 8 4 % @                     ",
"                                                - < 1 0 <           w j U `                       q , q : %                     ",
"                                                                    - 6 S s                       + < q f 3 @                   ",
"                                                                    % l L j -                       - 0 P w 8                   ",
"                                                                      l v s 0                         j N N 7                   ",
"                                                                      9 l s v                         7 0 f > O                 ",
"                                                                      - o.{ ) -                         7 O @ #                 ",
"                                                                        P 7.v 0 -                       O # 6 >                 ",
"                                                                        @ (  .{ s                         @ v w % i r 9 0 s     ",
"                                                                      0 v 9.9.9.'                         s ( 8 k #.X.$.w.L     ",
"                                                                    a. .( q.2.s.( 8                     [ a.u.l v ( e.e.s       ",
"                                                                z D.G.v p g h x O                     { k.J.m.' _ ] 3.          ",
"                                                              K x.N.k 8 7 f > .                   s ; e.j.k.A.t.n 1             ",
"                                                          t :.u._ 9 7 j 7 O                   p x c j i.7.e.e.(                 ",
"                                                        l ` #.a 1 0 7 @                       g v #.a 9.9.5.s                   ",
"                                                      &.Z c j s 9 $                           ( f.u.  b 4.                      ",
"                                                    k...> f } j O                             ( _ j                             ",
"                                          V 7.H.L L v f : +                                                                     ",
"                                  x   v V.V.z.$.v z , k >                                                                       ",
"                            ; ( n ) 9 f [ _ ~ ` w.d.N N z 8                                                                     ",
"                              d b { 7 n 4._ T Y | -.B 4 % w )                                                                   ",
"                            p 2.n.q.  2.C.d.j.r... .B k * % f                                                                   ",
"                                x     b m                                                                                       ",
"                                                                                                                                ",
"                                                                                                                                ",
"                                                                                                                                ",
"                                                                                                                                ",
"                                                                                                                                ",
"                                                                                                                                ",
"                                                                                                                                "
};
