/* XPM */
static char *result[] = {
/* columns rows colors chars-per-pixel */
"64 64 172 2 ",
"   c #060604",
".  c #070805",
"X  c #0A0A06",
"o  c #0D0D0A",
"O  c #100F0B",
"+  c #13120D",
"@  c #161B09",
"#  c #1B1D0F",
"$  c #151512",
"%  c #181611",
"&  c #1C1B14",
"*  c #1D1C19",
"=  c #211E15",
"-  c #211F19",
";  c #1E210C",
":  c #27260E",
">  c #222214",
",  c #2A2616",
"<  c #272916",
"1  c #2B2913",
"2  c #24231B",
"3  c #2A261E",
"4  c #2C2B1C",
"5  c #312E1F",
"6  c #2E321F",
"7  c #33321E",
"8  c #3C351D",
"9  c #363D1F",
"0  c #393A1E",
"q  c #242420",
"w  c #282722",
"e  c #2D2B22",
"r  c #2D2D2A",
"t  c #322E23",
"y  c #382F20",
"u  c #2E3022",
"i  c #2E302D",
"p  c #343324",
"a  c #3B3523",
"s  c #363A24",
"d  c #3B3B25",
"f  c #34342B",
"g  c #39372C",
"h  c #373928",
"j  c #3D3B2B",
"k  c #373732",
"l  c #393731",
"z  c #3D3B33",
"x  c #40351D",
"c  c #403721",
"v  c #423D25",
"b  c #423D2C",
"n  c #413E34",
"m  c #3D4227",
"M  c #3E4825",
"N  c #3D422A",
"B  c #434326",
"V  c #414925",
"C  c #4E4927",
"Z  c #44432D",
"A  c #4C442C",
"S  c #45492B",
"D  c #4D4B2C",
"F  c #534323",
"G  c #5D4A24",
"H  c #52462A",
"J  c #534E2C",
"K  c #5B4B2C",
"L  c #48502E",
"P  c #59512F",
"I  c #444333",
"U  c #4A4534",
"Y  c #464932",
"T  c #4D4A34",
"R  c #42403B",
"E  c #4E4639",
"W  c #4D4B3A",
"Q  c #524C33",
"!  c #5C4E33",
"~  c #524C3A",
"^  c #4D5135",
"/  c #4D5439",
"(  c #535434",
")  c #5B5534",
"_  c #545A34",
"`  c #5F5934",
"'  c #55533B",
"]  c #5B533A",
"[  c #565A39",
"{  c #5B5B3D",
"}  c #66532E",
"|  c #625331",
" . c #6A5732",
".. c #665E35",
"X. c #6B5937",
"o. c #62573B",
"O. c #625F3B",
"+. c #6C5C3B",
"@. c #5A6136",
"#. c #5C633C",
"$. c #63633D",
"%. c #6C633C",
"&. c #464542",
"*. c #484641",
"=. c #4D4C45",
"-. c #564E42",
";. c #555344",
":. c #5C5642",
">. c #565A42",
",. c #5B5C43",
"<. c #555248",
"1. c #5C574C",
"2. c #5B5A48",
"3. c #5E5B52",
"4. c #635C44",
"5. c #695E41",
"6. c #645D49",
"7. c #685F49",
"8. c #5B6346",
"9. c #636144",
"0. c #6A6C46",
"q. c #65634C",
"w. c #6B654E",
"e. c #6E6C4A",
"r. c #70664E",
"t. c #75694E",
"y. c #7A6F4D",
"u. c #6F714C",
"i. c #75734A",
"p. c #7D784F",
"a. c #646550",
"s. c #676956",
"d. c #6E6B53",
"f. c #626459",
"g. c #696B5C",
"h. c #746D5A",
"j. c #737050",
"k. c #7E7455",
"l. c #7A7955",
"z. c #7F7359",
"x. c #6F6E61",
"c. c #756F60",
"v. c #6E7062",
"b. c #727460",
"n. c #7D7663",
"m. c #7C7B6B",
"M. c #817247",
"N. c #82754A",
"B. c #837750",
"V. c #847A54",
"C. c #837C5B",
"Z. c #827C61",
"A. c #8A7D61",
"S. c #827B6F",
"D. c #85845E",
"F. c #88825F",
"G. c #968051",
"H. c #998B5E",
"J. c #8E8B64",
"K. c #8B8168",
"L. c #938A63",
"P. c #9B8C65",
"I. c #9A8B6A",
"U. c #959E66",
"Y. c #9C916E",
"T. c #828376",
"R. c #8C8B7F",
"E. c #A5966F",
"W. c #ADA379",
"Q. c #B4A37C",
"!. c #A79D89",
"~. c None",
/* pixels */
"~.~.~.~.~.~.~.~.~.~.~.~.~.~.~.~.~.~.~.~.~.~.~.~.~.~.~.~.~.~.~.~.~.~.~.~.~.~.~.~.~.~.~.~.~.~.~.~.~.~.~.~.~.~.~.~.~.~.~.~.~.~.~.~.",
"~.~.~.~.~.~.~.~.~.~.~.~.~.~.~.~.~.~.~.~.~.~.~.~.~.~.~.~.~.~.~.~.~.~.~.~.~.~.~.~.~.~.~.~.~.~.~.~.~.~.~.~.~.~.~.~.~.~.~.~.~.~.~.~.",
"~.~.~.~.~.~.~.~.~.~.~.~.~.~.~.~.~.~.~.~.~.~.~.~.~.~.~.~.~.~.~.~.~.~.~.~.~.~.~.~.~.~.~.~.~.~.~.~.~.~.~.~.~.~.~.~.~.~.~.~.~.~.~.~.",
"~.~.~.~.~.~.~.~.~.~.~.~.~.~.~.~.~.~.~.~.~.~.~.~.~.~.~.~.~.~.< A b D 4 ~.~.~.~.~.~.~.~.~.~.~.~.~.~.~.~.~.~.~.~.~.~.~.~.~.~.~.~.~.",
"~.~.~.~.~.~.~.~.~.~.~.~.~.~.~.~.~.~.~.~.~.~.~.~.~.~.~.~.~.< v a a c x j ~.~.~.~.~.~.~.~.~.~.~.~.~.~.~.~.~.~.~.~.~.~.~.~.~.~.~.~.",
"~.~.~.~.~.~.~.~.~.~.~.~.~.~.~.~.~.~.~.~.~.~.~.~.~.~.~.~.4 I u t e p < p Z ~.~.~.~.~.~.~.~.~.~.~.~.~.~.~.~.~.~.~.~.~.~.~.~.~.~.~.",
"~.~.~.~.~.~.~.~.~.~.~.~.~.~.~.~.~.~.~.~.~.~.~.~.~.~.~.~.p ] Q Q h T b Z T ~.~.~.~.~.~.~.~.~.~.~.~.~.~.~.~.~.~.~.~.~.~.~.~.~.~.~.",
"~.~.~.~.~.~.~.~.~.~.~.~.~.~.~.~.~.~.~.~.d p ~.~.~.~.~.~.7 Q T c = 8 b ] ` ~.~.~.~.~.~.~.r ~.~.~.~.~.~.~.~.~.~.~.~.~.~.~.~.~.~.~.",
"~.~.~.~.~.~.~.~.~.~.~.~.~.~.~.~.~.~.~.~.e j ~.~.~.~.~.- Z v 8 : @ : 1 8 d 2 ~.~.~.~.~.~.Q a ~.~.~.~.~.~.~.~.~.~.~.~.~.~.~.~.~.~.",
"~.~.~.~.~.~.~.~.~.~.~.~.~.~.~.~.~.~.~.n 5 9 9 ~.~.~.~.p o.P B 7 4 4 7 C A Q ~.~.~.~.~.S d h ~.~.~.~.~.~.~.~.~.~.~.~.~.~.~.~.~.~.",
"~.~.~.~.~.~.~.~.~.~.~.~.~.~.~.~.~.~.2 U Z s 9 # ~.~.~.f { ) D B d B B D D W ~.~.~.~.V V Y b % ~.~.~.~.~.~.~.~.~.~.~.~.~.~.~.~.~.",
"~.~.~.~.~.~.~.~.~.~.~.~.~.~.~.~.~.~.2 h S Q Z = ~.~.~.j Y j V S j S M j j I $ ~.~.~.p { _ 5 $ ~.~.~.~.~.~.~.~.~.~.~.~.~.~.~.~.~.",
"~.~.~.~.~.~.~.~.~.~.~.~.~.~.~.~.~.~.~.p B Z p ;.y ~.~.f e b Q o.J %.) b = f % ~.~.t Z ) _ 2 + ~.~.~.~.~.~.~.~.~.~.~.~.~.~.~.~.~.",
"~.~.~.~.~.~.~.~.~.~.~.~.~.~.~.~.~.~.~.= H Z % I ;.W ;.U A } H d < d x } a n ~ b I q.=.a ) , o ~.~.~.~.~.~.~.~.~.~.~.~.~.~.~.~.~.",
"~.~.~.~.~.~.~.~.~.~.~.~.~.~.~.~.~.~.~.~.0 > ~.~.~.g 4.T } G v m 6 m 5 v F A W W f ~.~.~.B # ~.~.~.~.~.~.~.~.~.~.~.~.~.~.~.~.~.~.",
"~.~.~.~.~.~.~.~.~.~.~.~.~.~.~.~.~.~.~.~.) u ~.~.~.~.p U $.` T D S ( Z D J ! b ~.~.~.~.~.Q > ~.~.~.~.~.~.~.~.~.~.~.~.~.~.~.~.~.~.",
"~.~.~.~.~.~.~.~.~.~.~.~.~.~.~.~.~.~.~.~.z.~ ~.~.~.~.= W i.#.o.G 8 H F ( { ,.4 + ~.~.~.~.B.h ~.~.~.~.~.~.~.~.~.~.~.~.~.~.~.~.~.~.",
"~.~.~.~.~.~.~.~.~.~.~.~.~.~.~.~.~.~.~.~.e 3 ~.~.~.~.= W >.[ | K j A G ( ^ 2.5 % ~.~.~.~.f e ~.~.~.~.~.~.~.~.~.~.~.~.~.~.~.~.~.~.",
"~.~.~.~.~.~.~.~.~.~.~.~.~.~.~.~.~.~.~.~.o ~.~.~.~.~.4 n w d H X.X.+.A a = g 5 % ~.~.~.~.o O ~.~.~.~.~.~.~.~.~.~.~.~.~.~.~.~.~.~.",
"~.~.~.~.~.~.~.~.~.~.~.~.~.~.~.~.~.~.~.~.~.~.~.~.~.~.5 ~ n o.|  .H | } ! e E 7 & ~.~.~.~.~.~.~.~.~.~.~.~.~.~.~.~.~.~.~.~.~.~.~.~.",
"~.~.~.~.~.~.~.~.~.~.~.~.~.~.~.~.~.~.~.~.~.~.~.~.~.~.7 w.i.i...( d S ) %.O.w.p & ~.~.~.~.~.~.~.~.~.~.~.~.~.~.~.~.~.~.~.~.~.~.~.~.",
"~.~.~.~.~.~.~.~.~.~.~.~.~.~.~.~.~.~.~.~.~.~.~.~.~.~.5 q.G.H.$.[ j W _ B.N.t.4 ~.~.~.~.~.~.~.~.~.~.~.~.~.~.~.~.~.~.~.~.~.~.~.~.~.",
"~.~.~.~.~.~.~.~.~.~.~.~.~.~.~.~.~.~.~.~.~.~.~.~.~.~.4 ,.V.K.$.T f Y _ j.j.r.> ~.~.~.~.~.~.~.~.~.~.~.~.~.~.~.~.~.~.~.~.~.~.~.~.~.",
"~.~.~.~.~.~.~.~.~.~.~.~.~.~.~.~.~.~.~.~.~.~.~.~.~.~.4 g.D.F.M.` B J +.B.e.s.& ~.~.~.~.~.~.~.~.~.~.~.~.~.~.~.~.~.~.~.~.~.~.~.~.~.",
"~.~.~.~.~.~.~.~.~.~.~.~.~.~.~.~.~.~.~.~.~.~.~.~.~.~.7 m.J.l.0.@.S _ { e.C.m.> 2 ~.~.~.~.~.~.~.~.~.~.~.~.~.~.~.~.~.~.~.~.~.~.~.~.",
"~.~.~.~.~.~.~.~.~.~.~.~.~.~.~.~.~.~.~.~.~.~.~.~.~.~.p v.8.W ,.@.L _ { Z / s.= 2 ~.~.~.~.~.~.~.~.~.~.~.~.~.~.~.~.~.~.~.~.~.~.~.~.",
"~.~.~.~.~.~.~.~.~.~.~.~.~.~.~.~.~.~.~.~.~.~.~.~.~.& t x.q.' w.e.$.0.4.Q Y f.% & ~.~.~.~.~.~.~.~.~.~.~.~.~.~.~.~.~.~.~.~.~.~.~.~.",
"~.~.~.~.~.~.~.~.~.~.~.~.~.~.~.~.~.~.~.~.~.~.~.~.~.3 e b.Z.-.1.q.' q.1.E 6.s.% + ~.~.~.~.~.~.~.~.~.~.~.~.~.~.~.~.~.~.~.~.~.~.~.~.",
"~.~.~.~.~.~.~.~.~.~.~.~.~.~.~.~.~.~.~.~.~.~.p 2 h p 2 R.!.S.3.=.=.&.=.1.h.c.$ & < $ 4 ~.~.~.~.~.~.~.~.~.~.~.~.~.~.~.~.~.~.~.~.~.",
"~.~.~.~.~.~.~.~.~.~.~.~.~.~.~.~.~.~.~.~.~.+ 5 p R j & l r e & & * $ q w z &.$ q e 3 p ~.~.~.~.~.~.~.~.~.~.~.~.~.~.~.~.~.~.~.~.~.",
"~.~.~.~.~.~.~.~.~.~.~.~.~.~.~.~.~.~.~.~.~.& p 4 g r X & e e * * & & * 3 w + X * - - 4 & ~.~.~.~.~.~.~.~.~.~.~.~.~.~.~.~.~.~.~.~.",
"~.~.~.~.~.~.~.~.~.~.~.~.~.~.~.~.~.~.~.~.~.* j U 3 3   + l 3 2 o O O 2 e k O o o + e b & ~.~.~.~.~.~.~.~.~.~.~.~.~.~.~.~.~.~.~.~.",
"~.~.~.~.~.~.~.~.~.~.~.~.~.~.~.~.~.~.~.~.~.2 p 8.Z & X % w ~.* ~.~.~.% $ * o X $ t ' m & ~.~.~.~.~.~.~.~.~.~.~.~.~.~.~.~.~.~.~.~.",
"~.~.~.~.~.~.~.~.~.~.~.~.~.~.~.~.~.~.~.~.~.~.j ,.T ~.+ + $ ~.~.~.~.~.~.X X X     b >.j ~.~.~.~.~.~.~.~.~.~.~.~.~.~.~.~.~.~.~.~.~.",
"~.~.~.~.~.~.~.~.~.~.~.~.~.~.~.~.~.~.~.~.~.~.f 2.T . o + & ~.~.~.~.~.~.X X .   ~.W >.f ~.~.~.~.~.~.~.~.~.~.~.~.~.~.~.~.~.~.~.~.~.",
"~.~.~.~.~.~.~.~.~.~.~.~.~.~.~.~.~.~.~.~.~.~.q r W + o + & p ~.~.~.~.~.~.o     ~.W f r ~.~.~.~.~.~.~.~.~.~.~.~.~.~.~.~.~.~.~.~.~.",
"~.~.~.~.~.~.~.~.~.~.~.~.~.~.~.~.~.~.~.~.~.~.f o r $ o + $ U ~.~.~.~.~.~.O   + ~.q o r ~.~.~.~.~.~.~.~.~.~.~.~.~.~.~.~.~.~.~.~.~.",
"~.~.~.~.~.~.~.~.~.~.~.~.~.~.~.~.~.~.~.~.~.~.r ~.* * O o o d ~.~.~.~.~.& j e t ~.~.q i ~.~.~.~.~.~.~.~.~.~.~.~.~.~.~.~.~.~.~.~.~.",
"~.~.~.~.~.~.~.~.~.~.~.~.~.~.~.~.~.~.~.~.~.~.~.~.$ 2 2 t y w ~.~.~.~.~.e I u p ~.~.~.~.~.~.~.~.~.~.~.~.~.~.~.~.~.~.~.~.~.~.~.~.~.",
"~.~.~.~.~.~.~.~.~.~.~.~.~.~.~.~.~.~.~.~.~.~.~.~.~.U a d ] a ~.~.~.~.~.n 6.d p ~.~.~.~.~.~.~.~.~.~.~.~.~.~.~.~.~.~.~.~.~.~.~.~.~.",
"~.~.~.~.~.~.~.~.~.~.~.~.~.~.~.~.~.~.~.~.~.~.~.~.~.9.B 5 4.y ~.~.~.~.~.U 9.N u 2 ~.~.~.~.~.~.~.~.~.~.~.~.~.~.~.~.~.~.~.~.~.~.~.~.",
"~.~.~.~.~.~.~.~.~.~.~.~.~.~.~.~.~.~.~.~.~.~.~.~.~.t.0 : T 3 ~.~.~.~.o V.t.u 2 2 ~.~.~.~.~.~.~.~.~.~.~.~.~.~.~.~.~.~.~.~.~.~.~.~.",
"~.~.~.~.~.~.~.~.~.~.~.~.~.~.~.~.~.~.~.~.~.~.~.~.~.e.0 > c - ~.~.~.~.$ W 3 > p % ~.~.~.~.~.~.~.~.~.~.~.~.~.~.~.~.~.~.~.~.~.~.~.~.",
"~.~.~.~.~.~.~.~.~.~.~.~.~.~.~.~.~.~.~.~.~.~.~.~.~.0.0 < x = ~.~.~.~.f A.w 2 2.3 ~.~.~.~.~.~.~.~.~.~.~.~.~.~.~.~.~.~.~.~.~.~.~.~.",
"~.~.~.~.~.~.~.~.~.~.~.~.~.~.~.~.~.~.~.~.~.~.~.~.~.0.M V J , ~.~.~.~.U Q.= $ R r ~.~.~.~.~.~.~.~.~.~.~.~.~.~.~.~.~.~.~.~.~.~.~.~.",
"~.~.~.~.~.~.~.~.~.~.~.~.~.~.~.~.~.~.~.~.~.~.~.~.~.U s ^ 0.3 ~.~.~.~.:.K.~.~.-.<.~.~.~.~.~.~.~.~.~.~.~.~.~.~.~.~.~.~.~.~.~.~.~.~.",
"~.~.~.~.~.~.~.~.~.~.~.~.~.~.~.~.~.~.~.~.~.~.~.~.~.W _ #.r.- ~.~.~.~.<.3.~.~.3.T.~.~.~.~.~.~.~.~.~.~.~.~.~.~.~.~.~.~.~.~.~.~.~.~.",
"~.~.~.~.~.~.~.~.~.~.~.~.~.~.~.~.~.~.~.~.~.~.~.~.~.b k.B.) ~.~.~.~.~.~.~.~.~.~.~.~.~.~.~.~.~.~.~.~.~.~.~.~.~.~.~.~.~.~.~.~.~.~.~.",
"~.~.~.~.~.~.~.~.~.~.~.~.~.~.~.~.~.~.~.~.~.~.~.~.~.~.L.P.~ ~.~.~.~.~.~.~.~.~.~.~.~.~.~.~.~.~.~.~.~.~.~.~.~.~.~.~.~.~.~.~.~.~.~.~.",
"~.~.~.~.~.~.~.~.~.~.~.~.~.~.~.~.~.~.~.~.~.~.~.~.~.~.' T * ~.~.~.~.~.~.~.~.~.~.~.~.~.~.~.~.~.~.~.~.~.~.~.~.~.~.~.~.~.~.~.~.~.~.~.",
"~.~.~.~.~.~.~.~.~.~.~.~.~.~.~.~.~.~.~.~.~.~.~.~.~.~.0.{ ~.~.~.~.~.~.~.~.~.~.~.~.~.~.~.~.~.~.~.~.~.~.~.~.~.~.~.~.~.~.~.~.~.~.~.~.",
"~.~.~.~.~.~.~.~.~.~.~.~.~.~.~.~.~.~.~.~.~.~.~.~.~.e L.Y.W ~.~.~.~.~.~.~.~.~.~.~.~.~.~.~.~.~.~.~.~.~.~.~.~.~.~.~.~.~.~.~.~.~.~.~.",
"~.~.~.~.~.~.~.~.~.~.~.~.~.~.~.~.~.~.~.~.~.~.~.~.~.N U.W.6.~.~.~.~.~.~.~.~.~.~.~.~.~.~.~.~.~.~.~.~.~.~.~.~.~.~.~.~.~.~.~.~.~.~.~.",
"~.~.~.~.~.~.~.~.~.~.~.~.~.~.~.~.~.~.~.~.~.~.~.~.~.N 0.E.C.~.~.~.~.~.~.~.~.~.~.~.~.~.~.~.~.~.~.~.~.~.~.~.~.~.~.~.~.~.~.~.~.~.~.~.",
"~.~.~.~.~.~.~.~.~.~.~.~.~.~.~.~.~.~.~.~.~.~.~.~.~.q.Z Q d.~.~.~.~.~.~.~.~.~.~.~.~.~.~.~.~.~.~.~.~.~.~.~.~.~.~.~.~.~.~.~.~.~.~.~.",
"~.~.~.~.~.~.~.~.~.~.~.~.~.~.~.~.~.~.~.~.~.~.~.~.2 g.j e z.e ~.~.~.~.~.~.~.~.~.~.~.~.~.~.~.~.~.~.~.~.~.~.~.~.~.~.~.~.~.~.~.~.~.~.",
"~.~.~.~.~.~.~.~.~.~.~.~.~.~.~.~.~.~.~.~.~.~.~.~.w <.* > I.~ ~.~.~.~.~.~.~.~.~.~.~.~.~.~.~.~.~.~.~.~.~.~.~.~.~.~.~.~.~.~.~.~.~.~.",
"~.~.~.~.~.~.~.~.~.~.~.~.~.~.~.~.~.~.~.~.~.~.~.~.m.b.~.~.n.h.~.~.~.~.~.~.~.~.~.~.~.~.~.~.~.~.~.~.~.~.~.~.~.~.~.~.~.~.~.~.~.~.~.~.",
"~.~.~.~.~.~.~.~.~.~.~.~.~.~.~.~.~.~.~.~.~.~.~.~.~.~.~.~.~.~.~.~.~.~.~.~.~.~.~.~.~.~.~.~.~.~.~.~.~.~.~.~.~.~.~.~.~.~.~.~.~.~.~.~.",
"~.~.~.~.~.~.~.~.~.~.~.~.~.~.~.~.~.~.~.~.~.~.~.~.~.~.~.~.~.~.~.~.~.~.~.~.~.~.~.~.~.~.~.~.~.~.~.~.~.~.~.~.~.~.~.~.~.~.~.~.~.~.~.~.",
"~.~.~.~.~.~.~.~.~.~.~.~.~.~.~.~.~.~.~.~.~.~.~.~.~.~.~.~.~.~.~.~.~.~.~.~.~.~.~.~.~.~.~.~.~.~.~.~.~.~.~.~.~.~.~.~.~.~.~.~.~.~.~.~.",
"~.~.~.~.~.~.~.~.~.~.~.~.~.~.~.~.~.~.~.~.~.~.~.~.~.~.~.~.~.~.~.~.~.~.~.~.~.~.~.~.~.~.~.~.~.~.~.~.~.~.~.~.~.~.~.~.~.~.~.~.~.~.~.~.",
"~.~.~.~.~.~.~.~.~.~.~.~.~.~.~.~.~.~.~.~.~.~.~.~.~.~.~.~.~.~.~.~.~.~.~.~.~.~.~.~.~.~.~.~.~.~.~.~.~.~.~.~.~.~.~.~.~.~.~.~.~.~.~.~.",
"~.~.~.~.~.~.~.~.~.~.~.~.~.~.~.~.~.~.~.~.~.~.~.~.~.~.~.~.~.~.~.~.~.~.~.~.~.~.~.~.~.~.~.~.~.~.~.~.~.~.~.~.~.~.~.~.~.~.~.~.~.~.~.~."
};
