/* XPM */
static char *result[] = {
/* columns rows colors chars-per-pixel */
"64 64 171 2 ",
"   c #040402",
".  c #090705",
"X  c #0B0B06",
"o  c #0D0D09",
"O  c #100E07",
"+  c #100F0B",
"@  c #0E100B",
"#  c #13130D",
"$  c #1A160C",
"%  c #17180F",
"&  c #1B1A0E",
"*  c #171611",
"=  c #191612",
"-  c #171811",
";  c #1C1B13",
":  c #1D1D19",
">  c #221B0E",
",  c #221D13",
"<  c #201F19",
"1  c #1F210B",
"2  c #1F2213",
"3  c #232215",
"4  c #2B2516",
"5  c #2B2C16",
"6  c #25241A",
"7  c #2A261B",
"8  c #27291C",
"9  c #2C2B1C",
"0  c #332D13",
"q  c #332D1D",
"w  c #382E1C",
"e  c #2E301E",
"r  c #33331D",
"t  c #39331D",
"y  c #39391F",
"u  c #252521",
"i  c #292721",
"p  c #262920",
"a  c #2D2C22",
"s  c #2D2D29",
"d  c #322D22",
"f  c #302F2B",
"g  c #2C3022",
"h  c #343323",
"j  c #3A3524",
"k  c #363B26",
"l  c #3B3B24",
"z  c #34342A",
"x  c #3B362B",
"c  c #363A2A",
"v  c #3D3B2B",
"b  c #363532",
"n  c #383631",
"m  c #3C3B32",
"M  c #4A3C1F",
"N  c #433923",
"B  c #4B3E26",
"V  c #413C2C",
"C  c #483F29",
"Z  c #433E31",
"A  c #403E38",
"S  c #3D4125",
"D  c #3E432C",
"F  c #3F4232",
"G  c #3F403A",
"H  c #434225",
"J  c #4A4324",
"K  c #404A26",
"L  c #484A27",
"P  c #44432C",
"I  c #4A432C",
"U  c #454A2C",
"Y  c #4B4B2C",
"T  c #524524",
"R  c #53452B",
"E  c #524A2C",
"W  c #495726",
"Q  c #47502C",
"!  c #56512C",
"~  c #444334",
"^  c #4B4533",
"/  c #444830",
"(  c #4B4B33",
")  c #43423B",
"_  c #4B443A",
"`  c #4D4E3C",
"'  c #514632",
"]  c #524B34",
"[  c #5A4D31",
"{  c #544D3B",
"}  c #4F5333",
"|  c #555335",
" . c #5C5437",
".. c #525E30",
"X. c #5B5933",
"o. c #54523B",
"O. c #5C543C",
"+. c #57583A",
"@. c #5B5E3C",
"#. c #60512F",
"$. c #69562D",
"%. c #625337",
"&. c #635C3C",
"*. c #6B5B3A",
"=. c #725D37",
"-. c #5B6234",
";. c #59603B",
":. c #656236",
">. c #63643C",
",. c #6B643C",
"<. c #79653C",
"1. c #706D3F",
"2. c #7E6E3F",
"3. c #454542",
"4. c #494741",
"5. c #4F4C43",
"6. c #514F45",
"7. c #514E49",
"8. c #535242",
"9. c #5A5441",
"0. c #575A42",
"q. c #5D5A43",
"w. c #53544F",
"e. c #5A564B",
"r. c #5E5E4F",
"t. c #5B5850",
"y. c #635A43",
"u. c #695E44",
"i. c #625E48",
"p. c #6B5F4A",
"a. c #5B6245",
"s. c #656443",
"d. c #6A6346",
"f. c #646B43",
"g. c #6D6A44",
"h. c #67624B",
"j. c #6B644B",
"k. c #6C6C4D",
"l. c #706444",
"z. c #746B46",
"x. c #706649",
"c. c #756A4D",
"v. c #6E734D",
"b. c #7C7246",
"n. c #76734D",
"m. c #7D7349",
"M. c #636352",
"N. c #6F6750",
"B. c #6E6A54",
"V. c #6A6A5C",
"C. c #746A54",
"Z. c #7A6E55",
"A. c #706A5B",
"S. c #7B7354",
"D. c #7E7A51",
"F. c #7E7D59",
"G. c #757561",
"H. c #857654",
"J. c #827B54",
"K. c #897C52",
"L. c #807558",
"P. c #857E5F",
"I. c #8F8357",
"U. c #89816A",
"Y. c #918464",
"T. c #988C63",
"R. c #958A69",
"E. c #988B6E",
"W. c #AB9970",
"Q. c #B3A178",
"!. c None",
/* pixels */
"!.!.!.!.!.!.!.!.!.!.!.!.!.!.!.!.!.!.!.!.!.!.!.!.!.!.!.!.!.!.!.!.!.!.!.!.!.!.!.!.!.!.!.!.!.!.!.!.!.!.!.!.!.!.!.!.!.!.!.!.!.!.!.!.",
"!.!.!.!.!.!.!.!.!.!.!.!.!.!.!.!.!.!.!.!.!.!.!.!.!.!.!.!.!.!.!.!.!.!.!.!.!.!.!.!.!.!.!.!.!.!.!.!.!.!.!.!.!.!.!.!.!.!.!.!.!.!.!.!.",
"!.!.!.!.!.!.!.!.!.!.!.!.!.!.!.!.!.!.!.!.!.!.!.!.!.!.!.!.!.!.!.!.!.!.!.!.!.!.!.!.!.!.!.!.!.!.!.!.!.!.!.!.!.!.!.!.!.!.!.!.!.!.!.!.",
"!.!.!.!.!.!.!.!.!.!.!.!.!.!.!.!.!.!.!.!.!.!.!.!.!.!.!.!.!.!.!.!.!.!.!.!.!.!.!.!.!.!.!.!.!.!.!.!.!.!.!.!.!.!.!.!.!.!.!.!.!.!.!.!.",
"!.!.!.!.!.!.!.!.!.!.!.!.!.!.!.!.!.!.!.!.!.!.!.!.!.!.!.!.!.!.!.!.!.!.!.!.!.!.!.!.!.!.!.!.!.!.!.!.!.!.!.!.!.!.!.!.!.!.!.!.!.!.!.!.",
"!.!.!.!.!.!.!.!.!.!.!.!.!.!.!.!.!.!.!.!.!.!.!.!.!.!.!.!.!.!.!.!.!.!.!.h d h h !.!.!.!.!.!.!.!.!.!.!.!.!.!.!.!.!.!.!.!.!.!.!.!.!.",
"!.!.!.!.!.!.!.!.!.!.!.!.!.!.!.!.!.!.!.!.!.!.!.!.!.!.!.!.!.!.!.!.S >.f.U Q h U D.z.t !.!.!.!.!.!.!.!.!.!.!.!.!.!.!.!.!.!.!.!.!.!.",
"!.!.!.!.!.!.!.!.!.!.!.!.!.!.!.!.!.!.!.!.!.!.!.U.W.H.a.U U s.I.2.n.J.a.S W S } g.g.>.F.!.!.!.!.!.!.!.!.!.!.!.!.!.!.!.!.!.!.!.!.!.",
"!.!.!.!.!.!.!.!.!.!.!.!.!.!.!.!.!.!.!.!.!.!.!.d w 4 8 : 3 9 z t N V | U r & r j 5 h H !.!.!.!.!.!.!.!.!.!.!.!.!.!.!.!.!.!.!.!.!.",
"!.!.!.!.!.!.!.!.!.!.!.!.!.!.!.!.!.!.!.!.!.!.!.!.!.!.!.!.!.!.!.!.!.# h B.7., a 8 !.!.!.!.!.!.!.!.!.!.!.!.!.!.!.!.!.!.!.!.!.!.!.!.",
"!.!.!.!.!.!.!.!.!.!.!.!.!.!.!.!.!.!.!.!.!.!.!.!.!.!.!.!.!.!.!.!.!.!.!.H.y.X !.!.!.!.!.!.!.!.!.!.!.!.!.!.!.!.!.!.!.!.!.!.!.!.!.!.",
"!.!.!.!.!.!.!.!.!.!.!.!.!.!.!.!.!.!.!.!.!.!.!.!.!.!.!.!.!.!.!.!.!.!.!.d.o.!.!.!.!.!.!.!.!.!.!.!.!.!.!.!.!.!.!.!.!.!.!.!.!.!.!.!.",
"!.!.!.!.!.!.!.!.!.!.!.!.!.!.!.!.!.!.!.!.!.!.!.!.!.!.!.!.!.!.!.!.!.!.!.^ x !.= 8 8 4 q , !.!.!.!.!.!.!.!.!.!.!.!.!.!.!.!.!.!.!.!.",
"!.!.!.!.!.!.!.!.!.!.!.!.!.!.!.!.!.!.!.!.!.!.!.!.!.!.!.!.!.!.8 q t t j k r k l l j 5 3 1 q ]  .] l g t t 5 3 !.!.!.!.!.!.!.!.!.!.",
"!.!.!.!.!.!.!.!.!.!.!.!.!.!.!.!.!.!.!.!.!.!.!.!.!.!.!.!.7 r r e 4 3 N ] l S H h 5 5 1 0 ; j x x s 6 q j l ^ !.!.!.!.!.!.!.!.!.!.",
"!.!.!.!.!.!.!.!.!.!.!.!.!.!.!.!.!.!.!.!.!.!.!.!.!.6 q h q r P k g 5 E X.U U | ! L ! H M 8 ]  .] k 5 q B I H !.!.!.!.!.!.!.!.!.!.",
"!.!.!.!.!.!.!.!.!.!.!.!.!.!.!.!.!.!.!.!.!.!.!.9 V t N C B T ] J B T *.' z l @.d.,.<. .V d &.l.@.( D h 8 3 ; !.!.!.!.!.!.!.!.!.!.",
"!.!.!.!.!.!.!.!.!.!.!.!.!.!.!.!.!.!.!.!.!.!.6 h a N R N E ;.;.X.$.$.R z h z ^ _ o.] { ~ N %.[ [ | t $ % * # !.!.!.!.!.!.!.!.!.!.",
"!.!.!.!.!.!.!.!.!.!.!.!.!.!.!.!.!.!.!.!.!.: 8 z S J C 6 z @.o.+.] B ] q.{ Z x d q a k j 7 r l j 7 $ $ O + !.!.!.!.!.!.!.!.!.!.!.",
"!.!.!.!.!.!.!.!.!.!.!.!.!.!.!.!.!.!.!.!.= 9 l E.Q.T.D. .X.b.m.g.:.K.Y.A.B.9.y.y.&.&.S.k ; 3 h i 6 $ $ # + !.!.!.!.!.!.!.!.!.!.!.",
"!.!.!.!.!.!.!.!.!.!.!.!.!.!.!.!.!.!.!.# a k E C.C.{ ~ U Q } P ] | ,.Z b 9.9.x.V o.+.N.8 ; 1 5 ; = = # !.!.!.!.!.!.!.!.!.!.!.!.!.",
"!.!.!.!.!.!.!.!.!.!.!.!.!.!.!.!.a.S v s k v i.~ h k 4 2 4 & & 9 5 9 s s V { y.d i - o o # # 2 # !.!.!.!.!.!.!.!.!.!.!.!.!.!.!.!.",
"!.!.!.!.!.!.!.!.!.!.!.!.!.!.!.!.V.0.^ i v ~ 0.+.r 8 5 r ( y k ] ] a ; # = 7 ; o X o @ * o + # X !.!.!.!.!.!.!.!.!.!.!.!.!.!.!.!.",
"!.!.!.!.!.!.!.!.!.!.!.!.!.!.!.!.G.` s s ~ 8.&.c.&.j ( ] [ E x.C.p.] v 9 8 p ; @ # o X % $ ; # !.!.!.!.!.!.!.!.!.!.!.!.!.!.!.!.!.",
"!.!.!.!.!.!.!.!.!.!.!.!.!.!.!.!.c v v m 6.r.g.C.( ' y.m Z 9.O.V j h a 8 ; ; ; ; 6 o ; 6 d g !.!.!.!.!.!.!.!.!.!.!.!.!.!.!.!.!.!.",
"!.!.!.!.!.!.!.!.!.!.!.!.!.!.!.!.!.!.X ) w.G ( ~ u x 6.V z h 9 7 q q 5 i 6 4 8 3 p i d q v : !.!.!.!.!.!.!.!.!.!.!.!.!.!.!.!.!.!.",
"!.!.!.!.!.!.!.!.!.!.!.!.!.!.!.!.b 7.) 4.3.G ( ~ h 8 3 4 q 6 8 8 9 9 7 2 ; 4 7 8 6 = !.!.!.!.!.!.!.!.!.!.!.!.!.!.!.!.!.!.!.!.!.!.",
"!.!.!.!.!.!.!.!.!.!.!.!.!.!.!.!.!.!.!.!.4.5.m = # # # & 9 7 8 3 8 5 4 6 4 7 , $ = !.!.!.!.!.!.!.!.!.!.!.!.!.!.!.!.!.!.!.!.!.!.!.",
"!.!.!.!.!.!.!.!.!.!.!.!.!.!.!.!.!.!.: !.i i = > 6 V V $ & ; ; % $ : = $ O + + !.!.!.!.!.!.!.!.!.!.!.!.!.!.!.!.!.!.!.!.!.!.!.!.!.",
"!.!.!.!.!.!.!.!.!.!.!.!.!.!.!.!.!.!.!.!.!.!.!.!.!.@.q.!.!.!.# ; 7 3 , l j ; !.!.!.!.!.!.!.!.!.!.!.!.!.!.!.!.!.!.!.!.!.!.!.!.!.!.",
"!.!.!.!.!.!.!.!.!.!.!.!.!.!.!.!.!.!.!.!.!.!.!.!.!.f.a.!.!.!.o ; U I i 9 ] I 8 !.!.!.!.!.!.!.!.!.!.!.!.!.!.!.!.!.!.!.!.!.!.!.!.!.",
"!.!.!.!.!.!.!.!.!.!.!.!.!.!.!.!.!.!.!.!.!.!.!.h z.-.>.g.!.!.!.% j U U ( X.j.+.l 9 !.!.!.!.!.!.!.!.!.!.!.!.!.!.!.!.!.!.!.!.!.!.!.",
"!.!.!.!.!.!.!.!.!.!.!.!.!.!.!.z k.,...@.@.#.=.O.n.X.:.D.!.!.!.6 g Y u.u.] o.] Y ] I 7 !.!.!.!.!.!.!.!.!.!.!.!.!.!.!.!.!.!.!.!.!.",
"!.!.!.!.!.!.!.!.!.!.!.!.!.!.!.!.8.c.U H ( C C z ` S E +.!.!.!.h x x C ^ z 5 l } o.~ o.+.h !.6 9 !.!.!.!.!.!.!.!.!.!.!.!.!.!.!.!.",
"!.!.!.!.!.!.!.!.!.!.!.!.!.!.!.!.~  .U V U C h u u 9 r c !.!.!.!.!.!.!.o X   @ k F z ~ j.j.D S k I , !.!.!.!.!.!.!.!.!.!.!.!.!.!.",
"!.!.!.!.!.!.!.!.!.!.!.!.!.!.!.!.; , * # ; ; : = = ; ; a !.!.!.!.!.!.!.+ % @ X & ; 9 ( x.j.` 8.G l , !.!.!.!.!.!.!.!.!.!.!.!.!.!.",
"!.!.!.!.!.!.!.!.!.!.!.!.!.!.!.!.!.!.!.!.!.!.!.!.!.!.!.!.!.!.!.!.!.!.!.!.o o X & X !.!.V ~ ) e.8.u ; # !.!.!.!.!.!.!.!.!.!.!.!.!.",
"!.!.!.!.!.!.!.!.!.!.!.!.!.!.!.!.!.!.!.!.!.!.!.!.!.!.!.!.!.!.!.!.!.!.; 6 ; P P m 6 !.!.!.!.: 5.~ i ; # !.!.!.!.!.!.!.!.!.!.!.!.!.",
"!.!.!.!.!.!.!.!.!.!.!.!.!.!.!.!.!.!.!.!.!.!.!.!.!.!.!.!.!.!.!.!.* ] d.( D 9.h 9 z !.!.!.!.!.6 s f 7 + !.!.!.!.!.!.!.!.!.!.!.!.!.",
"!.!.!.!.!.!.!.!.!.!.!.!.!.!.!.!.!.!.!.!.!.!.!.!.!.!.!.!.!.!.# > q j.y.~ ~ g r D 6 !.!.!.!.!.!.; 8 a # o !.!.!.!.!.!.!.!.!.!.!.!.",
"!.!.!.!.!.!.!.!.!.!.!.!.!.!.!.!.!.!.!.!.!.!.!.!.!.!.!.!.# 2 3 w h 3 , q < = 3 # !.!.!.!.!.!.!.7 t z 8 @ !.!.!.!.!.!.!.!.!.!.!.!.",
"!.!.!.!.!.!.!.!.!.!.!.!.!.!.!.!.!.!.!.!.!.!.!.!.!.!., v P y 4 ; # $ , , # !.!.!.!.!.!.!.!.!.!.= w 9 7 @ !.!.!.!.!.!.!.!.!.!.!.!.",
"!.!.!.!.!.!.!.!.!.!.!.!.!.!.!.!.!.!.!.!.!.!.!.!.!.^ &.V 9 7 8 4 4 4 O !.!.!.!.!.!.!.!.!.!.!.!.!.8 p 5 * X !.!.!.!.!.!.!.!.!.!.!.",
"!.!.!.!.!.!.!.!.!.!.!.!.!.!.!.!.!.!.h ~ ~ ` U e U j.j % # 8 q , !.!.!.!.!.!.!.!.!.!.!.!.!.!.!.!.; a 7 ; + !.!.!.!.!.!.!.!.!.!.!.",
"!.!.!.!.!.!.!.!.!.!.!.!.i ) z ~ 8 3 S.S.I.E.S.8 8 d 4 $ X !.!.!.!.!.!.!.!.!.!.!.!.!.!.!.!.!.!.!.!.8 d x X !.!.!.!.!.!.!.!.!.!.!.",
"!.!.!.!.!.!.!.!.!.!.!.!.!.8 x Z s s h.u.N.S.d.D h j r !.!.!.!.!.!.!.!.!.!.!.!.!.!.!.!.!.!.!.!.!.!.6 ^ ^ o !.!.!.!.!.!.!.!.!.!.!.",
"!.!.!.!.!.!.!.!.!.!.!.!.!.8.k.v.8 b q.9.h.C.8.G c ~ ( h !.!.!.!.!.!.!.!.!.!.!.!.!.!.!.!.!.!.!.!.!.+ v a X !.!.!.!.!.!.!.!.!.!.!.",
"!.!.!.!.!.!.!.!.!.!.!.!.; V +.| !.) M.8.h.j.o.G ~ q.q.y.o.!.!.!.!.!.!.!.!.!.!.!.!.!.!.!.!.!.!.!.!.!.+ > >   !.!.!.!.!.!.!.!.!.!.",
"!.!.!.!.!.!.!.!.!.!.!.!.!.!.!.!.!.!.!.!.!.!.!.!.!.!.!.i 6 !.!.!.!.!.!.!.!.!.!.!.!.!.!.!.!.!.!.!.!.!.!.d 4 * !.!.!.!.!.!.!.!.!.!.",
"!.!.!.!.!.!.!.!.!.!.!.!.!.!.!.!.!.!.!.!.!.!.!.!.!.!.!.!.!.!.!.!.!.!.!.!.!.!.!.!.!.!.!.!.!.!.!.!.!.!.q.^ , q T L P ^ Z !.!.!.!.!.",
"!.!.!.!.!.!.!.!.!.!.!.!.!.!.!.!.!.!.!.!.!.!.!.!.!.!.!.!.!.!.!.!.!.!.!.!.!.!.!.!.!.!.!.!.!.!.!.!.( B.` x O.C 4 , + 7 d !.!.!.!.!.",
"!.!.!.!.!.!.!.!.!.!.!.!.!.!.!.!.!.!.!.!.!.!.!.!.!.!.!.!.!.!.!.!.!.!.!.!.!.!.!.!.!.!.!.!.!.!.!.x s.} Y ' u.[ B j + !.!.!.!.!.!.!.",
"!.!.!.!.!.!.!.!.!.!.!.!.!.!.!.!.!.!.!.!.!.!.!.!.!.!.!.!.!.!.!.!.!.!.!.!.!.!.!.!.!.!.!.!.h { h z ) K J R ' ] 4 !.!.!.!.!.!.!.!.!.",
"!.!.!.!.!.!.!.!.!.!.!.!.!.!.!.!.!.!.!.!.!.!.!.!.!.!.!.!.!.!.!.!.!.!.!.!.!.!.!.!.!.!.!.m m m z z 8.( %.p.Z !.!.!.!.!.!.!.!.!.!.!.",
"!.!.!.!.!.!.!.!.!.!.!.!.!.!.!.!.!.!.!.!.!.!.!.!.!.!.!.!.!.!.!.!.!.!.!.!.!.!.!.!.!.!.!.: n 5.a u V.A._ !.!.!.!.!.!.!.!.!.!.!.!.!.",
"!.!.!.!.!.!.!.!.!.!.!.!.!.!.!.!.!.!.!.!.!.!.!.!.!.!.!.!.!.!.!.!.!.!.!.!.!.!.!.!.!.!.!.8.t.V.!.!.) !.!.!.!.!.!.!.!.!.!.!.!.!.!.!.",
"!.!.!.!.!.!.!.!.!.!.!.!.!.!.!.!.!.!.!.!.!.!.!.!.!.!.!.!.!.!.!.!.!.!.!.!.!.!.!.!.!.!.!.!.!.!.!.!.!.!.!.!.!.!.!.!.!.!.!.!.!.!.!.!.",
"!.!.!.!.!.!.!.!.!.!.!.!.!.!.!.!.!.!.!.!.!.!.!.!.!.!.!.!.!.!.!.!.!.!.!.!.!.!.!.!.!.!.!.!.!.!.!.!.!.!.!.!.!.!.!.!.!.!.!.!.!.!.!.!.",
"!.!.!.!.!.!.!.!.!.!.!.!.!.!.!.!.!.!.!.!.!.!.!.!.!.!.!.!.!.!.!.!.!.!.!.!.!.!.!.!.!.!.!.!.!.!.!.!.!.!.!.!.!.!.!.!.!.!.!.!.!.!.!.!.",
"!.!.!.!.!.!.!.!.!.!.!.!.!.!.!.!.!.!.!.!.!.!.!.!.!.!.!.!.!.!.!.!.!.!.!.!.!.!.!.!.!.!.!.!.!.!.!.!.!.!.!.!.!.!.!.!.!.!.!.!.!.!.!.!.",
"!.!.!.!.!.!.!.!.!.!.!.!.!.!.!.!.!.!.!.!.!.!.!.!.!.!.!.!.!.!.!.!.!.!.!.!.!.!.!.!.!.!.!.!.!.!.!.!.!.!.!.!.!.!.!.!.!.!.!.!.!.!.!.!.",
"!.!.!.!.!.!.!.!.!.!.!.!.!.!.!.!.!.!.!.!.!.!.!.!.!.!.!.!.!.!.!.!.!.!.!.!.!.!.!.!.!.!.!.!.!.!.!.!.!.!.!.!.!.!.!.!.!.!.!.!.!.!.!.!.",
"!.!.!.!.!.!.!.!.!.!.!.!.!.!.!.!.!.!.!.!.!.!.!.!.!.!.!.!.!.!.!.!.!.!.!.!.!.!.!.!.!.!.!.!.!.!.!.!.!.!.!.!.!.!.!.!.!.!.!.!.!.!.!.!.",
"!.!.!.!.!.!.!.!.!.!.!.!.!.!.!.!.!.!.!.!.!.!.!.!.!.!.!.!.!.!.!.!.!.!.!.!.!.!.!.!.!.!.!.!.!.!.!.!.!.!.!.!.!.!.!.!.!.!.!.!.!.!.!.!."
};
