/* XPM */
static char *result[] = {
/* columns rows colors chars-per-pixel */
"64 64 174 2 ",
"   c #060504",
".  c #080705",
"X  c #0A0906",
"o  c #0D0C0A",
"O  c #100F0B",
"+  c #0E1009",
"@  c #13120E",
"#  c #18170F",
"$  c #1E1F0D",
"%  c #161511",
"&  c #181711",
"*  c #171910",
"=  c #1C1B14",
"-  c #1D1D1B",
";  c #221E15",
":  c #211F19",
">  c #252714",
",  c #262815",
"<  c #2A2B14",
"1  c #24231B",
"2  c #29261C",
"3  c #27281B",
"4  c #2B2A1D",
"5  c #312A14",
"6  c #332E1B",
"7  c #2C3019",
"8  c #33331E",
"9  c #3C341F",
"0  c #333A1B",
"q  c #262521",
"w  c #282723",
"e  c #2B2A23",
"r  c #2D2D2A",
"t  c #322E22",
"y  c #2F3221",
"u  c #2F312C",
"i  c #343224",
"p  c #393524",
"a  c #343922",
"s  c #3B3A24",
"d  c #34332A",
"f  c #393629",
"g  c #3C3A2C",
"h  c #363531",
"j  c #3C3C33",
"k  c #423B24",
"l  c #4E3E22",
"z  c #423D2C",
"x  c #493F2B",
"c  c #423E32",
"v  c #423E38",
"b  c #3E4425",
"n  c #3C412B",
"m  c #464225",
"M  c #4E4527",
"N  c #424B27",
"B  c #44442D",
"V  c #4A442A",
"C  c #464B2E",
"Z  c #4D4B2B",
"A  c #544521",
"S  c #584522",
"D  c #584B27",
"F  c #53462A",
"G  c #544B2C",
"H  c #5D4C2B",
"J  c #485329",
"K  c #52562D",
"L  c #5D542D",
"P  c #54592F",
"I  c #58582C",
"U  c #444332",
"Y  c #4C4635",
"T  c #454933",
"R  c #4C4B33",
"E  c #44433A",
"W  c #47483E",
"Q  c #4B4A39",
"!  c #514B33",
"~  c #5D4F32",
"^  c #534D3C",
"/  c #584F3A",
"(  c #4D5232",
")  c #545434",
"_  c #5C5535",
"`  c #515C34",
"'  c #5B5B36",
"]  c #55533B",
"[  c #5B553C",
"{  c #535A39",
"}  c #595C3D",
"|  c #615434",
" . c #6B5630",
".. c #625C34",
"X. c #6D5C35",
"o. c #635D39",
"O. c #735F34",
"+. c #596037",
"@. c #5C633E",
"#. c #6C6637",
"$. c #6A643C",
"%. c #636C3D",
"&. c #6E693F",
"*. c #73673D",
"=. c #494641",
"-. c #4D4C43",
";. c #545343",
":. c #5B5544",
">. c #575844",
",. c #5B5C43",
"<. c #54524C",
"1. c #5B5B4A",
"2. c #635D43",
"3. c #695E46",
"4. c #615A4C",
"5. c #635E52",
"6. c #5F6340",
"7. c #5C6248",
"8. c #646343",
"9. c #696443",
"0. c #6D6E45",
"q. c #65624A",
"w. c #6C664C",
"e. c #6F6D4B",
"r. c #756544",
"t. c #70644F",
"y. c #736E4C",
"u. c #796E4B",
"i. c #7C7344",
"p. c #74724C",
"a. c #79754A",
"s. c #7C7E4D",
"d. c #646452",
"f. c #696453",
"g. c #6A6A5F",
"h. c #716B59",
"j. c #6F7254",
"k. c #6C705C",
"l. c #727153",
"z. c #7B7453",
"x. c #7F7955",
"c. c #75795C",
"v. c #6E6B64",
"b. c #716C64",
"n. c #7F7967",
"m. c #7D7B6E",
"M. c #816D43",
"N. c #82714A",
"B. c #88774B",
"V. c #837557",
"C. c #847A51",
"Z. c #887B52",
"A. c #827C5A",
"S. c #8A7F5B",
"D. c #857C6A",
"F. c #8D865D",
"G. c #808958",
"H. c #918457",
"J. c #91845C",
"K. c #8F8C65",
"L. c #83876A",
"P. c #8B8A6C",
"I. c #918264",
"U. c #928A61",
"Y. c #9C8B61",
"T. c #9F9067",
"R. c #95967C",
"E. c #A0926E",
"W. c #A69674",
"Q. c #AB9C74",
"!. c #98A269",
"~. c #ADA27B",
"^. c #9A9783",
"/. c None",
/* pixels */
"/./././././././././././././././././././././././././././././././././././././././././././././././././././././././././././././././.",
"/./././././././././././././././././././././././././././././././././././././././././././././././././././././././././././././././.",
"/./././././././././././././././././././././././././././././././././././././././././././././././././././././././././././././././.",
"/./././././././././././././././././././././././././././././././././././././././././././././././././././././././././././././././.",
"/././././././././././././././././././././././././././././.m x x m < /./././././././././././././././././././././././././././././.",
"/././././././././././././././././././././././././././., s p 6 p 6 p 4 /././././././././././././././././././././././././././././.",
"/././././././././././././././././././././././././././.R a i d g i y R /././././././././././././././././././././././././././././.",
"/././././././././././././././././././././././././././.2./ ! i s ! ] [ 2 /./././././.i 2 /./././././././././././././././././././.",
"/./././././././././././././././././.i R /././././././.V m 6 $ $ 5 9 k 2 /./././././.R z /./././././././././././././././././././.",
"/./././././././././././././././././.e s 3 /././././.Q V m < > > < m m Y /././././.b b g % /././././././././././././././././././.",
"/././././././././././././././././.g B 7 b < /./././.[ _ D s s s p Z ! ! : /././.0 N n ! = /././././././././././././././././././.",
"/././././././././././././././././.c R m 0 7 /././.& } ! C b s b b C V R 4 /././., [ { V & @ /./././././././././././././././././.",
"/./././././././././././././././.= e B ( R i /././.@ U i V R ' $.) V 2 i q /./.1 i ) ' 8 * X /./././././././././././././././././.",
"/././././././././././././././././.3 m Z p d.^ f /.w c z _ V k m M _ x f g U U 4.1.p _ 9 + /././././././././././././././././././.",
"/./././././././././././././././././.s k @ /.c >.q.z ~ H l 9 0 i t l S F z ,.R e /./.s 3 /./././././././././././././././././././.",
"/./././././././././././././././././.8 8 /./././.^ U o.L Z B R C B V G ' c g /./././.m 4 /./././././././././././././././././././.",
"/./././././././././././././././././.] [ /./././.@ 2 e.6.' D F M A ) { 8.p t /./././.w.R /./././././././././././././././././././.",
"/./././././././././././././././././.^ ^ /./././.@ t j.6.+.H z z H _ { 1.c 4 /./././.c g /./././././././././././././././././././.",
"/./././././././././././././././././.1 o /./././.# 4 v p V H r.r.D k 4 e d 4 /./././.+ & /./././././././././././././././././././.",
"/./././././././././././././././././././././././.& f Y g ~  .X.O. .H x g z 8 /./././././././././././././././././././././././././.",
"/./././././././././././././././././././././././.= B y.e.*._ B g ) X.e.9.Q i /./././././././././././././././././././././././././.",
"/./././././././././././././././././././././././.; z H.H.i.@.T T } 9.H.M.U 8 /./././././././././././././././././././././././././.",
"/./././././././././././././././././././././././.= p S.F.p.} n g ] 8.A.u.c 2 /./././././././././././././././././././././././././.",
"/./././././././././././././././././././././././.1 d L.A.Z.$.Z V ..N.a.c.j ; /./././././././././././././././././././././././././.",
"/./././././././././././././././././././././././.d f R.U.z.8.P J ' 8.V.P.-.$ /./././././././././././././././././././././././././.",
"/./././././././././././././././././././././././.i g c.,.] 8.` K @.] T 7.<.= /./././././././././././././././././././././././././.",
"/./././././././././././././././././././././././.i j k.Q 3.2.0.w.6.2.c >.=.& /./././././././././././././././././././././././././.",
"/./././././././././././././././././././././././.e d L.w.4.d.e.2.q.<.^ l.W * = /././././././././././././././././././././././././.",
"/././././././././././././././././././././.i /.3 4 h ^.D.b.<.<.-.=.<.5.D.<.@ 1 : = < /./././././././././././././././././././././.",
"/././././././././././././././././././././.m 4 W t w v.-.j r - = - q r j q + 3 u 4 4 /./././././././././././././././././././././.",
"/./././././././././././././././././././.@ i t E f & & 2 ; = = = = : t : % X - 2 1 2 = /././././././././././././././././././././.",
"/./././././././././././././././././././.= g i e e # 1 j w 2 & & = 1 d w X . % @ f s = /././././././././././././././././././././.",
"/./././././././././././././././././././.= C ] i 3 + - - O = /././.= /.- . . # t ] f * /././././././././././././././././././././.",
"/./././././././././././././././././././.= U q.R /.X @ . /././././././.o o X /.z } s /./././././././././././././././././././././.",
"/././././././././././././././././././././.T 7.R /.= 1 e 4 /./././././.X o o /.R ;.e /./././././././././././././././././././././.",
"/././././././././././././././././././././.u ;.R /.z w.z.R /./././././.o o X @ Q r r /./././././././././././././././././././././.",
"/././././././././././././././././././././.r % h /.>.l.t.q./././././.@ o # X & r o u /./././././././././././././././././././././.",
"/././././././././././././././././././././.h - /.. { @.Y :./././././.2 = 1 @ = = - r /./././././././././././././././././././././.",
"/././././././././././././././././././././.- /./.o n ( e Y /././././.3 1 4 = = & /./././././././././././././././././././././././.",
"/./././././././././././././././././././././././.% f 3 4 i w /./././.3 g B h h & /./././././././././././././././././././././././.",
"/./././././././././././././././././././././././.2 >.* o & - /./././.f V.F.0.w./././././././././././././././././././././././././.",
"/./././././././././././././././././././././././.q ;.1 X t 3 /./././.c Q.Z.*.Y./././././././././././././././././././././././././.",
"/./././././././././././././././././././././././.w E = . t f /./././.x J.I %.F./././././././././././././././././././././././././.",
"/./././././././././././././././././././././././.5.h././.q t /./././.V B._ I p./././././././././././././././././././././././././.",
"/./././././././././././././././././././././././.v.5././.= = /./././.k O.D K p./././././././././././././././././././././././././.",
"/./././././././././././././././././././././././././././././././././.9 #.K J p./././././././././././././././././././././././././.",
"/./././././././././././././././././././././././././././././././././.i s.%.b ] /././././././././././././././././././././././././.",
"/./././././././././././././././././././././././././././././././././.w z.@.a g /././././././././././././././././././././././././.",
"/././././././././././././././././././././././././././././././././././.a.0.C i /././././././././././././././././././././././././.",
"/././././././././././././././././././././././././././././././././././.! Y.9././././././././././././././././././././././././././.",
"/././././././././././././././././././././././././././././././././././.^ E.w.e /././././././././././././././././././././././././.",
"/././././././././././././././././././././././././././././././././././.@ Z C /./././././././././././././././././././././././././.",
"/./././././././././././././././././././././././././././././././././././.8.0././././././././././././././././././././././././././.",
"/././././././././././././././././././././././././././././././././././.:.T.K.d /././././././././././././././././././././././././.",
"/././././././././././././././././././././././././././././././././././.:.~.!.( /././././././././././././././././././././././././.",
"/././././././././././././././././././././././././././././././././././.2.~.G.W /././././././././././././././././././././././././.",
"/././././././././././././././././././././././././././././././././././.S.V.R Y % /./././././././././././././././././././././././.",
"/././././././././././././././././././././././././././././././././././.^ q B j.: /./././././././././././././././././././././././.",
"/./././././././././././././././././././././././././././././././././.g I.; i 1.q /./././././././././././././././././././././././.",
"/./././././././././././././././././././././././././././././././././.Y W.@ @ <.j /./././././././././././././././././././././././.",
"/./././././././././././././././././././././././././././././././././.h.D././.f.m././././././././././././././././././././././././.",
"/./././././././././././././././././././././././././././././././././././././././././././././././././././././././././././././././.",
"/./././././././././././././././././././././././././././././././././././././././././././././././././././././././././././././././.",
"/./././././././././././././././././././././././././././././././././././././././././././././././././././././././././././././././."
};
