/* XPM */
static char *result[] = {
/* columns rows colors chars-per-pixel */
"64 64 173 2 ",
"   c #020202",
".  c #0B0A06",
"X  c #0C0C09",
"o  c #100C05",
"O  c #100E0A",
"+  c #14140C",
"@  c #19160E",
"#  c #16190E",
"$  c #1A190E",
"%  c #151410",
"&  c #181612",
"*  c #1C1B13",
"=  c #1D1D1A",
"-  c #211B0D",
";  c #211D13",
":  c #211F1C",
">  c #1E2114",
",  c #1F2019",
"<  c #22230D",
"1  c #242315",
"2  c #2B2415",
"3  c #252A14",
"4  c #2C2B16",
"5  c #24241B",
"6  c #2A261A",
"7  c #26281A",
"8  c #2C2B1C",
"9  c #312714",
"0  c #332E15",
"q  c #332C1C",
"w  c #382F1B",
"e  c #2F331B",
"r  c #33321E",
"t  c #39321C",
"y  c #373D1D",
"u  c #262522",
"i  c #282620",
"p  c #2C2B22",
"a  c #2F2E28",
"s  c #312D23",
"d  c #312F2A",
"f  c #2F3124",
"g  c #343324",
"h  c #3A3523",
"j  c #363A24",
"k  c #3B3B25",
"l  c #34332B",
"z  c #3A3629",
"x  c #363928",
"c  c #3C3B2B",
"v  c #373932",
"b  c #3B3B32",
"n  c #3E3F39",
"m  c #43361D",
"M  c #443C1E",
"N  c #413620",
"B  c #423C25",
"V  c #4D3E23",
"C  c #433D2B",
"Z  c #423F33",
"A  c #423F3A",
"S  c #3D4323",
"D  c #3E432B",
"F  c #3F4234",
"G  c #434224",
"H  c #444D25",
"J  c #4D4A24",
"K  c #44442B",
"L  c #4B442D",
"P  c #45492E",
"I  c #484B2D",
"U  c #534627",
"Y  c #594522",
"T  c #504428",
"R  c #584629",
"E  c #534A2A",
"W  c #5A4B28",
"Q  c #4E5028",
"!  c #54522D",
"~  c #444333",
"^  c #4C4633",
"/  c #464B31",
"(  c #4C4B33",
")  c #44433B",
"_  c #48463F",
"`  c #47483B",
"'  c #4C4A3A",
"]  c #544D36",
"[  c #5C4D32",
"{  c #544D3C",
"}  c #4D5433",
"|  c #545434",
" . c #595335",
".. c #555B37",
"X. c #5A5C33",
"o. c #54533B",
"O. c #5B543C",
"+. c #5C5B3D",
"@. c #62522E",
"#. c #615A37",
"$. c #6A5B34",
"%. c #62573A",
"&. c #645B3B",
"*. c #6A5B3C",
"=. c #5A603C",
"-. c #63643F",
";. c #696338",
":. c #6E6C3D",
">. c #786336",
",. c #73653C",
"<. c #4C4A43",
"1. c #534F43",
"2. c #555244",
"3. c #5A5543",
"4. c #595A45",
"5. c #55534D",
"6. c #565849",
"7. c #5D594D",
"8. c #625A43",
"9. c #6A5E43",
"0. c #635C4A",
"q. c #685F49",
"w. c #636242",
"e. c #6A6345",
"r. c #636944",
"t. c #6C6C43",
"y. c #65624C",
"u. c #6C644A",
"i. c #666B4A",
"p. c #686A49",
"a. c #706740",
"s. c #71664F",
"d. c #746C4D",
"f. c #79694B",
"g. c #7D7345",
"h. c #76704C",
"j. c #7E764D",
"k. c #757B4A",
"l. c #626456",
"z. c #6D6952",
"x. c #756D52",
"c. c #796E56",
"v. c #756E5D",
"b. c #747251",
"n. c #7C7254",
"m. c #767955",
"M. c #7A715A",
"N. c #797C5C",
"B. c #707065",
"V. c #81794D",
"C. c #867B52",
"Z. c #887A51",
"A. c #80755A",
"S. c #817E5C",
"D. c #7E8457",
"F. c #8B815A",
"G. c #94815C",
"H. c #8B8661",
"J. c #918566",
"K. c #938A62",
"L. c #9D8B63",
"P. c #958B69",
"I. c #998D6A",
"U. c #949061",
"Y. c #9E906B",
"T. c #9D9B6F",
"R. c #958B70",
"E. c #A4926C",
"W. c #A9976F",
"Q. c #A09672",
"!. c #AA9B7A",
"~. c #A7A172",
"^. c None",
/* pixels */
"^.^.^.^.^.^.^.^.^.^.^.^.^.^.^.^.^.^.^.^.^.^.^.^.^.^.^.^.^.^.^.^.^.^.^.^.^.^.^.^.^.^.^.^.^.^.^.^.^.^.^.^.^.^.^.^.^.^.^.^.^.^.^.^.",
"^.^.^.^.^.^.^.^.^.^.^.^.^.^.^.^.^.^.^.^.^.^.^.^.^.^.^.^.^.^.^.^.^.^.^.^.^.^.^.^.^.^.^.^.^.^.^.^.^.^.^.^.^.^.^.^.^.^.^.^.^.^.^.^.",
"^.^.^.^.^.^.^.^.^.^.^.^.^.^.^.^.^.^.^.^.^.^.^.^.^.^.^.^.^.^.^.^.^.^.^.^.^.^.^.^.^.^.^.^.^.^.^.^.^.^.^.^.^.^.^.^.^.^.^.^.^.^.^.^.",
"^.^.^.^.^.^.^.^.^.^.^.^.^.^.^.^.^.^.^.^.^.^.^.^.^.^.^.^.^.^.^.^.^.^.^.^.^.^.^.^.^.^.^.^.^.^.^.^.^.^.^.^.^.^.^.^.^.^.^.^.^.^.^.^.",
"^.^.^.^.^.^.^.^.^.^.^.^.^.^.^.^.^.^.^.^.^.^.^.^.^.^.^.^.^.^.^.^.^.^.^.^.^.^.^.^.^.^.^.^.^.^.^.^.^.^.^.^.^.^.^.^.^.^.^.^.^.^.^.^.",
"^.^.^.^.^.^.^.^.^.^.^.^.^.^.^.^.^.^.^.^.^.^.^.^.^.^.^.^.^.^.^.^.^.^.^.^.^.^.^.^.^.^.^.^.^.^.^.^.^.^.^.^.^.^.^.^.^.^.^.^.^.^.^.^.",
"^.^.^.^.^.^.^.^.^.^.^.^.^.^.^.^.^.^.^.^.^.^.^.^.L ( g c c ^.^.^.^.^.^.^.^.^.^.^.^.^.^.^.^.^.^.^.^.^.^.^.^.^.^.^.^.^.^.^.^.^.^.^.",
"^.^.^.^.^.^.^.^.^.^.^.^.^.^.^.^.^.^.^.^.^.( V.U.-.P H S | w.} y ^.^.^.^.^.^.^.^.^.^.^.^.^.^.^.^.^.^.^.^.^.^.^.^.^.^.^.^.^.^.^.^.",
"^.^.^.^.^.^.^.^.^.^.^.^.^.^.^.^.^.^.^.^.S.k.:.t.+.P H S | d.t.$.Z.t./ D o.t.L.R.^.^.^.^.^.^.^.^.^.^.^.^.^.^.^.^.^.^.^.^.^.^.^.^.",
"^.^.^.^.^.^.^.^.^.^.^.^.^.^.^.^.^.^.^.^.s s r j k 3 4 k / g q ; ; * % % @ * - : ^.^.^.^.^.^.^.^.^.^.^.^.^.^.^.^.^.^.^.^.^.^.^.^.",
"^.^.^.^.^.^.^.^.^.^.^.^.^.^.^.^.^.^.^.^.^.^.^.* g g 1.v.g O ^.^.^.^.^.^.^.^.^.^.^.^.^.^.^.^.^.^.^.^.^.^.^.^.^.^.^.^.^.^.^.^.^.^.",
"^.^.^.^.^.^.^.^.^.^.^.^.^.^.^.^.^.^.^.^.^.^.^.^.^.^.C G.^.^.^.^.^.^.^.^.^.^.^.^.^.^.^.^.^.^.^.^.^.^.^.^.^.^.^.^.^.^.^.^.^.^.^.^.",
"^.^.^.^.^.^.^.^.^.^.^.^.^.^.^.^.^.^.^.^.^.^.^.^.^.^.g b.^.^.^.^.^.^.^.^.^.^.^.^.^.^.^.^.^.^.^.^.^.^.^.^.^.^.^.^.^.^.^.^.^.^.^.^.",
"^.^.^.^.^.^.^.^.^.^.^.^.^.^.^.^.^.^.^.* q q 6 7 5 + * Z ^.^.^.^.^.^.^.^.^.^.^.^.^.^.^.^.^.^.^.^.^.^.^.^.^.^.^.^.^.^.^.^.^.^.^.^.",
"^.^.^.^.^.^.^.^.^.^.2 4 q x c ] %.] h < 1 e h j k g h k k w w t r 1 ^.^.^.^.^.^.^.^.^.^.^.^.^.^.^.^.^.^.^.^.^.^.^.^.^.^.^.^.^.^.",
"^.^.^.^.^.^.^.^.^.~ C B h 8 f k L C 5 0 < 3 3 e B S S O.L 1 > 3 8 8 8 1 % ^.^.^.^.^.^.^.^.^.^.^.^.^.^.^.^.^.^.^.^.^.^.^.^.^.^.^.",
"^.^.^.^.^.^.^.^.^.o.! U h q c ] O.L p m M J H E | I I |  .0 q 8 c t 9 7 q h x ^.^.^.^.^.^.^.^.^.^.^.^.^.^.^.^.^.^.^.^.^.^.^.^.^.",
"^.^.^.^.^.^.^.^.^.g G K / K K O.d.&.z c  .>.,.e.0.k x C *.Y V M L B N q m 4 7 h i ^.^.^.^.^.^.^.^.^.^.^.^.^.^.^.^.^.^.^.^.^.^.^.",
"^.^.^.^.^.^.^.^.^.^.g r t m +.&.&.;.^ ^ 0.O.O.o.{ D p d C @.@. .| } G 6 w w 7 1 g 5 ^.^.^.^.^.^.^.^.^.^.^.^.^.^.^.^.^.^.^.^.^.^.",
"^.^.^.^.^.^.^.^.^.^.* $ 9 2 8 k M M g C / c Z K C { { 3.^ L B ~ / ' l & 2 h h g 1 p 5 ^.^.^.^.^.^.^.^.^.^.^.^.^.^.^.^.^.^.^.^.^.",
"^.^.^.^.^.^.^.^.^.^.= * 2 9 s a C 8 > c J.C.j.d.A.c.3.0.M.C.X.X.&.#.!  .d.F.W.!.k 7 8 i ^.^.^.^.^.^.^.^.^.^.^.^.^.^.^.^.^.^.^.^.",
"^.^.^.^.^.^.^.^.^.^.^.^.& q w 4 G y j ~ v.w.e.Z c.A.{ d p | [ I j K K j x z O.3.s r 7 i ^.^.^.^.^.^.^.^.^.^.^.^.^.^.^.^.^.^.^.^.",
"^.^.^.^.^.^.^.^.^.^.^.^.^.^.^.; h e r F 8 7 f p u.s.z p = 8 ; ; + + 1 $ # > # * p 5 7 5 = 8 K l.^.^.^.^.^.^.^.^.^.^.^.^.^.^.^.^.",
"^.^.^.^.^.^.^.^.^.^.^.^.^.^.^.^.# 4 1 l / P 8 * * 5 ; X . X % 2 8 3 t e 1 * * 7 7 5 * : = = u n ^.^.^.^.^.^.^.^.^.^.^.^.^.^.^.^.",
"^.^.^.^.^.^.^.^.^.^.^.^.^.^.^.^.. g e r 7 5 8 7 7 5 5 + + 1 8 z ^ L B h C z ^ O.L F l 5 = % 5 l ^.^.^.^.^.^.^.^.^.^.^.^.^.^.^.^.",
"^.^.^.^.^.^.^.^.^.^.^.^.^.^.^.^.^.5 K K 8 5 p 7 1 = * * * 1 : ; 5 g C d ' C 6 z ] b <.n X     . ^.^.^.^.^.^.^.^.^.^.^.^.^.^.^.^.",
"^.^.^.^.^.^.^.^.^.^.^.^.^.^.^.^.^.^.` L L ~ f p 7 q 7 5 2 2 4 7 z s z g g g i p j l v <.l d v ^.^.^.^.^.^.^.^.^.^.^.^.^.^.^.^.^.",
"^.^.^.^.^.^.^.^.^.^.^.^.^.^.^.^.^.^.^.^.^.^.5 p 1 6 ; * = 7 7 8 7 7 s N 1 * 5 5 l v d = ^.% = ^.^.^.^.^.^.^.^.^.^.^.^.^.^.^.^.^.",
"^.^.^.^.^.^.^.^.^.^.^.^.^.^.^.^.^.^.^.^.^.^.^.* * ; 6 6 ; 6 7 1 * 5 7 4 $ 7 ; $ ; s Z = * : ^.^.^.^.^.^.^.^.^.^.^.^.^.^.^.^.^.^.",
"^.^.^.^.^.^.^.^.^.^.^.^.^.^.^.^.^.^.^.^.^.^.^.^.^.O . @ * * 1 + @ * ^.^.5 ] C o & ^.^.^.^.^.^.^.^.^.^.^.^.^.^.^.^.^.^.^.^.^.^.^.",
"^.^.^.^.^.^.^.^.^.^.^.^.^.^.^.^.^.^.^.^.^.^.^.^.^.+ h L C g t j ; X ^.^.^.i.K ^.^.^.^.^.^.^.^.^.^.^.^.^.^.^.^.^.^.^.^.^.^.^.^.^.",
"^.^.^.^.^.^.^.^.^.^.^.^.^.^.^.^.^.^.^.^.^.^.^.^.k +.&.P 1 j L h . ^.^.^.c =./ ^.^.^.^.^.^.^.^.^.^.^.^.^.^.^.^.^.^.^.^.^.^.^.^.^.",
"^.^.^.^.^.^.^.^.^.^.^.^.^.^.^.^.^.^.^.^.^.8 | +.| 8. .O.( K 8 7 ^.^.^.C C.! :.x.T T k K D r K 2.^.^.^.^.^.^.^.^.^.^.^.^.^.^.^.^.",
"^.^.^.^.^.^.^.^.^.^.^.^.^.^.^.1 p ^.^.c 4.{ u.d.X.I ( e.d.e.5 i ^.^.^.g a.G Q 4.B R K / S | O.2.^.^.^.^.^.^.^.^.^.^.^.^.^.^.^.^.",
"^.^.^.^.^.^.^.^.^.^.^.^.^.^.L k K P r.I.d.' ` } k # O * 7 6 * 8 ^.^.^.8 ..D x ) 8 C K K S  .] ) ^.^.^.^.^.^.^.^.^.^.^.^.^.^.^.^.",
"^.^.^.^.^.^.^.^.^.^.^.^.^.] ^ ` 6.3.N.Y.d.j e 8 . $ + O X ^.^.^.^.^.^.% 7 5 * * = a h h e c c g ^.^.^.^.^.^.^.^.^.^.^.^.^.^.^.^.",
"^.^.^.^.^.^.^.^.^.^.^.^.8 +.~ ) 2.<.3.O.z + ^.* + # + % ^.^.^.^.^.^.^.% 1 * @ & ^.^.^.^.^.^.^.^.^.^.^.^.^.^.^.^.^.^.^.^.^.^.^.^.",
"^.^.^.^.^.^.^.^.^.^.^.^.d K ~ F 6.5 ^.^.^.^.^.* + O X X ^.^.^.^.^.^.^.^.^.^.^.^.^.^.^.^.^.^.^.^.^.^.^.^.^.^.^.^.^.^.^.^.^.^.^.^.",
"^.^.^.^.^.^.^.^.^.^.^.7 l C ^ l =   ^.^.^.^.^.* 5 i 8 & * ^.^.^.^.^.^.^.^.^.^.^.^.^.^.^.^.^.^.^.^.^.^.^.^.^.^.^.^.^.^.^.^.^.^.^.",
"^.^.^.^.^.^.^.^.^.^.^.P Z c z ; ^.^.^.^.^.^.^.* > > c f +.e.^.^.^.^.^.^.^.^.^.^.^.^.^.^.^.^.^.^.^.^.^.^.^.^.^.^.^.^.^.^.^.^.^.^.",
"^.^.^.^.^.^.^.^.^.^.7 K / ^ L + ^.^.^.^.^.^.^.* 8 1 p Z q.E.V.6 ^.^.^.^.^.^.^.^.^.^.^.^.^.^.^.^.^.^.^.^.^.^.^.^.^.^.^.^.^.^.^.^.",
"^.^.^.^.^.^.^.^.^.^.G k g C g ^.^.^.^.^.^.^.^.^.X * & 5 s O.G.V.E ^.^.^.^.^.^.^.^.^.^.^.^.^.^.^.^.^.^.^.^.^.^.^.^.^.^.^.^.^.^.^.",
"^.^.^.^.^.^.^.^.^.k L r z x ^.^.^.^.^.^.^.^.^.^.^.^.X ; - o 6 %.>.X.j ^.^.^.^.^.^.^.^.^.^.^.^.^.^.^.^.^.^.^.^.^.^.^.^.^.^.^.^.^.",
"^.^.^.^.^.^.^.^.^.K ( g j * ^.^.^.^.^.^.^.^.^.^.^.^.^.^.@ ; ; ; B ;.k.} ^.^.^.^.^.^.^.^.^.^.^.^.^.^.^.^.^.^.^.^.^.^.^.^.^.^.^.^.",
"^.^.^.^.^.^.^.^.^.s O.^ u ^.^.^.^.^.^.^.^.^.^.^.^.^.^.^.^.^.6 h 8 q ^ e.h.^.^.^.^.^.^.^.^.^.^.^.^.^.^.^.^.^.^.^.^.^.^.^.^.^.^.^.",
"^.^.^.^.^.^.^.^.+ ; s.{ ^.^.^.^.^.^.^.^.^.^.^.^.^.^.^.^.^.^.^.+ q * + 5 e.n.^.^.^.^.^.^.^.^.^.^.^.^.^.^.^.^.^.^.^.^.^.^.^.^.^.^.",
"^.^.^.^.^.^.^.^.; - s 5 ^.^.^.^.^.^.^.^.^.^.^.^.^.^.^.^.^.^.^.^.^.^.. - q ' | w.H.m.} ^.^.^.^.^.^.^.^.^.^.^.^.^.^.^.^.^.^.^.^.^.",
"^.^.^.^.^.^.B * 2 h + ^.^.^.^.^.^.^.^.^.^.^.^.^.^.^.^.^.^.^.^.^.^.^.^.$ q 8 * ^ P.Q.T.~.C , 2.d ^.^.^.^.^.^.^.^.^.^.^.^.^.^.^.^.",
"^.^.0.( C B W w ; ~ O.^.^.^.^.^.^.^.^.^.^.^.^.^.^.^.^.^.^.^.^.^.^.^.1 j / x D 3.A.d.8.x.o.u c g ) ) ^.^.^.^.^.^.^.^.^.^.^.^.^.^.",
"^.^.^.; & 6 t ^ O.l b.y.^.^.^.^.^.^.^.^.^.^.^.^.^.^.^.^.^.^.^.^.^.] 3.O.3.b ~ 6.M.u.8.8.v 5 0.q.l ^.^.^.^.^.^.^.^.^.^.^.^.^.^.^.",
"^.^.^.^.^.V W *.f.^ / D.K.^.^.^.^.^.^.^.^.^.^.^.^.^.^.^.^.^.^.^.^.^.l ^ { Z b ' y.y.2.y.<.^...i.z.Z ^.^.^.^.^.^.^.^.^.^.^.^.^.^.",
"^.^.^.^.^.^.g 8.[ W ! I y.l { ^.^.^.^.^.^.^.^.^.^.^.^.^.^.^.^.^.^.^.^.^.^.^.^.^.^.^.^.l u ^.8 l 7 ^.^.^.^.^.^.^.^.^.^.^.^.^.^.^.",
"^.^.^.^.^.^.^.u 0.*.E ^ ` f ' 3.0.^.^.^.^.^.^.^.^.^.^.^.^.^.^.^.^.^.^.^.^.^.^.^.^.^.^.^.^.^.^.^.^.^.^.^.^.^.^.^.^.^.^.^.^.^.^.^.",
"^.^.^.^.^.^.^.^.^.2.s.y.1.5 4.b l ^.^.^.^.^.^.^.^.^.^.^.^.^.^.^.^.^.^.^.^.^.^.^.^.^.^.^.^.^.^.^.^.^.^.^.^.^.^.^.^.^.^.^.^.^.^.^.",
"^.^.^.^.^.^.^.^.^.^.^.B.) ^.6.1.) ^.^.^.^.^.^.^.^.^.^.^.^.^.^.^.^.^.^.^.^.^.^.^.^.^.^.^.^.^.^.^.^.^.^.^.^.^.^.^.^.^.^.^.^.^.^.^.",
"^.^.^.^.^.^.^.^.^.^.^.^.^.^.5.<.5.l ^.^.^.^.^.^.^.^.^.^.^.^.^.^.^.^.^.^.^.^.^.^.^.^.^.^.^.^.^.^.^.^.^.^.^.^.^.^.^.^.^.^.^.^.^.^.",
"^.^.^.^.^.^.^.^.^.^.^.^.^.^.^.^.^.^.^.^.^.^.^.^.^.^.^.^.^.^.^.^.^.^.^.^.^.^.^.^.^.^.^.^.^.^.^.^.^.^.^.^.^.^.^.^.^.^.^.^.^.^.^.^.",
"^.^.^.^.^.^.^.^.^.^.^.^.^.^.^.^.^.^.^.^.^.^.^.^.^.^.^.^.^.^.^.^.^.^.^.^.^.^.^.^.^.^.^.^.^.^.^.^.^.^.^.^.^.^.^.^.^.^.^.^.^.^.^.^.",
"^.^.^.^.^.^.^.^.^.^.^.^.^.^.^.^.^.^.^.^.^.^.^.^.^.^.^.^.^.^.^.^.^.^.^.^.^.^.^.^.^.^.^.^.^.^.^.^.^.^.^.^.^.^.^.^.^.^.^.^.^.^.^.^.",
"^.^.^.^.^.^.^.^.^.^.^.^.^.^.^.^.^.^.^.^.^.^.^.^.^.^.^.^.^.^.^.^.^.^.^.^.^.^.^.^.^.^.^.^.^.^.^.^.^.^.^.^.^.^.^.^.^.^.^.^.^.^.^.^.",
"^.^.^.^.^.^.^.^.^.^.^.^.^.^.^.^.^.^.^.^.^.^.^.^.^.^.^.^.^.^.^.^.^.^.^.^.^.^.^.^.^.^.^.^.^.^.^.^.^.^.^.^.^.^.^.^.^.^.^.^.^.^.^.^.",
"^.^.^.^.^.^.^.^.^.^.^.^.^.^.^.^.^.^.^.^.^.^.^.^.^.^.^.^.^.^.^.^.^.^.^.^.^.^.^.^.^.^.^.^.^.^.^.^.^.^.^.^.^.^.^.^.^.^.^.^.^.^.^.^.",
"^.^.^.^.^.^.^.^.^.^.^.^.^.^.^.^.^.^.^.^.^.^.^.^.^.^.^.^.^.^.^.^.^.^.^.^.^.^.^.^.^.^.^.^.^.^.^.^.^.^.^.^.^.^.^.^.^.^.^.^.^.^.^.^.",
"^.^.^.^.^.^.^.^.^.^.^.^.^.^.^.^.^.^.^.^.^.^.^.^.^.^.^.^.^.^.^.^.^.^.^.^.^.^.^.^.^.^.^.^.^.^.^.^.^.^.^.^.^.^.^.^.^.^.^.^.^.^.^.^."
};
