/* XPM */
static char *result[] = {
/* columns rows colors chars-per-pixel */
"64 64 5 1 ",
"  c #A7B4C4",
". c #BBC5D1",
"X c #C9D0DA",
"o c gray90",
"O c #FFFDFD",
/* pixels */
"OOOOOOOOOOOOOOOOOOOOOOOOOOOOOOOOOOOOOOOOOOOOOOOOOOOOOOOOOOOOOOOO",
"OOOOOOOOOOOOOOOOOOOOOOOOOOOOOOOOOOOOOOOOOOOOOOOOOOOOOOOOOOOOOOOO",
"OOooooooooooooooooooooooooooooooooooooooooooooooooooooooooooooOO",
"OOo .......O.XXXXXXXXXXXXXXX...OO..................O         oOO",
"OOo   .....O..XXXXXXXXXXXXXXXX.OO..................O         oOO",
"OOo    ....O....XXXXXXXXXXXXXXXOO..................O..       oOO",
"OOo     ...O.....XXXXXXXXXXXXXXOO..................O...      oOO",
"OOo       .O.......XXXXXXXXXXXXOOX.................O.....    oOO",
"OOo        O........XXXXXXXXXXXOOXX................O......   oOO",
"OOo        O .........XXXXXXXXXOOXXX...............O........ oOO",
"OOo.       O  .........XXXXXXXXOOXXXXX.............O.........oOO",
"OOo...     O    .........XXXXXXOOXXXXXX............O.........oOO",
"OOo....    O     .........XXXXXOOXXXXXXXX..........O.........oOO",
"OOo......  O      .........XXXXOOXXXXXXXXX.........O.........oOO",
"OOo....... O        .........XXOOXXXXXXXXXX........O.........oOO",
"OOo........O         .........XOOXXXXXXXXXXXX......O.........oOO",
"OOo........O.          ........OOXXXXXXXXXXXXX.....O.........oOO",
"OOoX.......O..          .......OOXXXXXXXXXXXXXX....O.........oOO",
"OOo.XX.....O....          .....OO..XXXXXXXXXXXXXX..O.........oOO",
"OOoOOOOOOOOOOOOOOOOOOOOOOOOOOOOOOOOOOOOOOOOOOOOOOOOOOOOOOOOOOoOO",
"OOoXXXXXX..O.......         ...OO.....XXXXXXXXXXXXXO.........oOO",
"OOoXXXXXXX.O........          .OO......XXXXXXXXXXXXOX........oOO",
"OOoXXXXXXXXO..........         OO........XXXXXXXXXXOXX.......oOO",
"OOoXXXXXXXXOX..........        OO.........XXXXXXXXXOXXXX.....oOO",
"OOoXXXXXXXXOXXX..........      OO ..........XXXXXXXOXXXXX....oOO",
"OOoXXXXXXXXOXXXX..........     OO   .........XXXXXXOXXXXXX...oOO",
"OOoXXXXXXXXOXXXXXX..........   OO    ..........XXXXOXXXXXXXX.oOO",
"OOoXXXXXXXXOXXXXXXX..........  OO     ..........XXXOXXXXXXXXXoOO",
"OOo.XXXXXXXOXXXXXXXXX..........OO       .........XXOXXXXXXXXXoOO",
"OOo...XXXXXOXXXXXXXXXX.........OO        ..........OXXXXXXXXXoOO",
"OOo....XXXXOXXXXXXXXXXXX.......OO          ........OXXXXXXXXXoOO",
"OOo......XXOXXXXXXXXXXXXX......OO..         .......O..XXXXXXXoOO",
"OOo.......XOXXXXXXXXXXXXXXX....OO...          .....O...XXXXXXoOO",
"OOo........OXXXXXXXXXXXXXXXX...OO.....         ....O.....XXXXoOO",
"OOo........O.XXXXXXXXXXXXXXXXX.OO......         ...O......XXXoOO",
"OOo .......O...XXXXXXXXXXXXXXXXOO........         .O........XoOO",
"OOo   .....O....XXXXXXXXXXXXXXXOO.........         O.........oOO",
"OOo    ....O......XXXXXXXXXXXXXOOX..........       O ........oOO",
"OOo      ..O.......XXXXXXXXXXXXOOXXX.........      O  .......oOO",
"OOo       .O.........XXXXXXXXXXOOXXXX..........    O    .....oOO",
"OOo        O..........XXXXXXXXXOOXXXXXX.........   O     ....oOO",
"OOo        O ...........XXXXXXXOOXXXXXXX.......... O      ...oOO",
"OOo.       O.  ..........XXXXXXOOXXXXXXXXX.........O        .oOO",
"OOoOOOOOOOOOOOOOOOOOOOOOOOOOOOOOOOOOOOOOOOOOOOOOOOOOOOOOOOOOOoOO",
"OOo....    O      ..........X..OOXXXXXXXXXXXX......O..       oOO",
"OOo......  O       ..........XXOOXXXXXXXXXXXXX.....O...      oOO",
"OOo....... O         ..........OOXXXXXXXXXXXXXXX...O.....    oOO",
"OOo........O          .........OOXXXXXXXXXXXXXXXX..O......   oOO",
"OOo........O.           .......OO.XXXXXXXXXXXXXXXXXO........ oOO",
"OOo........O...           .....OO..XXXXXXXXXXXXXXXXO.........oOO",
"OOo........O....           ....OO....XXXXXXXXXXXXXXOXX.......oOO",
"OOo........O......           ..OO.....XXXXXXXXXXXXXOXXX......oOO",
"OOo........O........          .OO.......XXXXXXXXXXXOXXXXX....oOO",
"OOo........O.........          OO........XXXXXXXXXXOXXXXXX...oOO",
"OOo........O...........        OO..........XXXXXXXXOXXXXXXXX.oOO",
"OOo........O............       OO  .........XXXXXXXOXXXXXXXXXoOO",
"OOo........O..............     OO   ..........XXXXXOXXXXXXXXXoOO",
"OOo........O...............    OO     .........XXXXOXXXXXXXXXoOO",
"OOo........O.................  OO      ..........XXOXXXXXXXXXoOO",
"OOo........O.................. OO        .........XOXXXXXXXXXoOO",
"OOo........O...................OO         .........OXXXXXXXXXoOO",
"OOooooooooooooooooooooooooooooooooooooooooooooooooooooooooooooOO",
"OOOOOOOOOOOOOOOOOOOOOOOOOOOOOOOOOOOOOOOOOOOOOOOOOOOOOOOOOOOOOOOO",
"OOOOOOOOOOOOOOOOOOOOOOOOOOOOOOOOOOOOOOOOOOOOOOOOOOOOOOOOOOOOOOOO"
};
